<?xml version="1.0" encoding="utf-8"?>
<!-- Generator: Adobe Illustrator 16.0.0, SVG Export Plug-In . SVG Version: 6.00 Build 0)  -->
<!DOCTYPE svg PUBLIC "-//W3C//DTD SVG 1.1//EN" "http://www.w3.org/Graphics/SVG/1.1/DTD/svg11.dtd">
<svg version="1.1" xmlns="http://www.w3.org/2000/svg" xmlns:xlink="http://www.w3.org/1999/xlink" x="0px" y="0px"
	 width="674.667px" height="222.665px" viewBox="0 0 674.667 222.665" enable-background="new 0 0 674.667 222.665"
	 xml:space="preserve">
<g id="Layer_1">
	<circle fill="none" stroke="#000000" stroke-width="6" stroke-miterlimit="10" cx="-629.569" cy="393.39" r="56.567"/>
</g>
<g id="Layer_2">
	<line fill="none" stroke="#000000" stroke-miterlimit="10" x1="-669.352" y1="353.608" x2="-573.002" y2="449.957"/>
	<path fill="none" stroke="#000000" stroke-miterlimit="10" d="M-573.002,336.823"/>
	<line fill="none" stroke="#000000" stroke-miterlimit="10" x1="-669.404" y1="433.224" x2="-589.709" y2="353.529"/>
	<line fill="none" stroke="#000000" stroke-miterlimit="10" x1="-629.569" y1="393.39" x2="-629.569" y2="381.1"/>
	<line fill="none" stroke="#000000" stroke-miterlimit="10" x1="-629.569" y1="405.679" x2="-629.569" y2="393.39"/>
	<line fill="none" stroke="#000000" stroke-miterlimit="10" x1="-641.859" y1="393.39" x2="-629.569" y2="393.39"/>
	<line fill="none" stroke="#000000" stroke-miterlimit="10" x1="-629.569" y1="393.39" x2="-617.28" y2="393.39"/>
	<line fill="none" stroke="#000000" stroke-miterlimit="10" x1="-669.568" y1="353.391" x2="-629.569" y2="381.1"/>
	<line fill="none" stroke="#000000" stroke-miterlimit="10" x1="-629.569" y1="381.1" x2="-589.57" y2="353.39"/>
	<line fill="none" stroke="#000000" stroke-miterlimit="10" x1="-617.28" y1="393.39" x2="-589.57" y2="353.39"/>
	<line fill="none" stroke="#000000" stroke-miterlimit="10" x1="-617.28" y1="393.39" x2="-573.002" y2="449.957"/>
	<line fill="none" stroke="#000000" stroke-miterlimit="10" x1="-629.569" y1="405.679" x2="-573.002" y2="449.957"/>
	<line fill="none" stroke="#000000" stroke-miterlimit="10" x1="-629.569" y1="405.679" x2="-669.568" y2="433.39"/>
	<line fill="none" stroke="#000000" stroke-miterlimit="10" x1="-641.859" y1="393.39" x2="-669.568" y2="433.39"/>
	<line fill="none" stroke="#000000" stroke-miterlimit="10" x1="-669.568" y1="353.391" x2="-641.859" y2="393.39"/>
	<polygon fill="#6CC5D1" stroke="#000000" stroke-miterlimit="10" points="-617.28,393.39 -629.569,393.39 -573.002,449.957 	"/>
	<polygon fill="#6CC5D1" stroke="#000000" stroke-miterlimit="10" points="-629.569,405.666 -629.569,393.376 -573.002,449.945 	"/>
</g>
<g id="Layer_3" display="none">
	<rect x="-940.613" y="335.335" display="inline" fill="none" width="323.333" height="165"/>
	<text transform="matrix(1 0 0 1 -940.6133 450.2339)" display="inline" font-family="'JosefinSans'" font-size="150">WE</text>
	<g display="inline">
		<path d="M98.556,184.876l-0.129-0.752h2.127c1.045,0.043,1.815,0.075,2.31,0.097s0.777,0.032,0.849,0.032
			c0.401,0,0.938-0.014,1.611-0.043c0.673-0.028,1.482-0.057,2.428-0.086l1.031,0.043l-0.107,0.816
			c-1.003,0.088-1.683,0.175-2.041,0.262c-0.358,0.088-0.537,0.285-0.537,0.59c0,0.32,0.533,1.247,1.601,2.779
			c1.067,1.533,2.299,3.216,3.695,5.049c1.396,1.834,2.388,3.094,2.976,3.781c0.43-0.587,1.074-1.511,1.934-2.771l1.633-2.449
			c0.573-0.83,1.214-1.88,1.923-3.147s1.063-2.161,1.063-2.683c0-1.04-0.967-1.51-2.9-1.41l0.086-0.816l1.805,0.086
			c0.143,0,0.616,0.015,1.418,0.043c0.802,0.029,1.268,0.043,1.396,0.043c0.215,0,0.917-0.014,2.105-0.043
			c1.188-0.028,1.891-0.043,2.105-0.043l-0.043,0.881c-0.945,0.043-1.712,0.204-2.299,0.483c-0.587,0.279-1.261,0.878-2.02,1.794
			c-0.759,0.917-1.798,2.371-3.115,4.361l-2.363,3.566l-2.256,3.523l0.086,6.961c0,1.719,0.025,2.861,0.075,3.427
			c0.05,0.565,0.168,0.942,0.354,1.128c0.186,0.187,0.559,0.352,1.117,0.494c0.487,0.101,1.246,0.294,2.277,0.58l-0.043,0.559
			c0.114,0-0.423-0.043-1.611-0.129l-1.332-0.086c-0.573-0.058-1.039-0.086-1.396-0.086h-0.924c-0.215,0-1.082,0.057-2.6,0.172
			c-1.218,0.143-2.099,0.215-2.643,0.215v-0.688c1.489-0.057,2.485-0.351,2.986-0.881c0.229-0.2,0.387-0.473,0.473-0.816
			s0.146-1.109,0.183-2.299c0.036-1.188,0.054-3.086,0.054-5.693c0-1.432-0.015-2.313-0.043-2.643l-1.762-2.6
			c-0.874-1.246-1.705-2.398-2.492-3.459c-0.788-1.06-1.425-1.869-1.912-2.428c-1.533-1.934-2.628-3.255-3.287-3.964
			c-0.659-0.709-1.225-1.167-1.697-1.375S99.516,184.919,98.556,184.876z"/>
		<path d="M128.715,203.654c0-1.26,0.232-2.402,0.698-3.427c0.465-1.024,1.106-1.908,1.923-2.653
			c0.816-0.744,1.769-1.317,2.857-1.719c1.088-0.4,2.256-0.602,3.502-0.602c1.131,0,2.202,0.208,3.212,0.623
			c1.01,0.416,1.894,0.988,2.653,1.719c0.759,0.73,1.357,1.594,1.794,2.589c0.437,0.995,0.655,2.066,0.655,3.212
			c0,1.49-0.354,2.887-1.063,4.189c-0.709,1.304-1.712,2.353-3.008,3.147c-1.296,0.795-2.79,1.192-4.479,1.192
			c-1.275,0-2.589-0.279-3.942-0.838s-2.492-1.457-3.416-2.696S128.715,205.574,128.715,203.654z M131.529,202.472
			c0,1.332,0.265,2.657,0.795,3.975c0.53,1.318,1.271,2.399,2.224,3.244c0.952,0.846,2.001,1.268,3.147,1.268
			c1.002,0,1.912-0.275,2.729-0.827s1.468-1.335,1.955-2.353c0.487-1.017,0.73-2.17,0.73-3.459c0-1.303-0.283-2.574-0.849-3.813
			c-0.566-1.239-1.347-2.249-2.342-3.029c-0.996-0.78-2.095-1.171-3.298-1.171c-0.974,0-1.848,0.266-2.621,0.795
			c-0.773,0.53-1.379,1.268-1.815,2.213C131.748,200.259,131.529,201.312,131.529,202.472z"/>
		<path d="M149.875,198.712v-0.892l4.788-2.653l0.432-0.172c0.201,0,0.302,0.129,0.302,0.387l-0.269,3.695
			c-0.179,2.922-0.269,4.727-0.269,5.414c0,1.619,0.214,2.961,0.643,4.028c0.428,1.067,1.429,1.601,3,1.601
			c0.5,0,1.019-0.082,1.554-0.247s1.157-0.415,1.864-0.752s1.261-0.604,1.661-0.806c0-1.07,0.021-1.769,0.064-2.098l0.129-4.386
			c0.043-1.327,0-2.265-0.129-2.813c-0.129-0.55-0.376-0.902-0.741-1.06s-0.971-0.25-1.815-0.278l-0.043-0.827l5.736-1.343
			c-0.072,1.289-0.147,2.518-0.226,3.685c-0.079,1.167-0.15,2.417-0.215,3.749s-0.097,2.32-0.097,2.965
			c0,2.092,0.136,3.553,0.408,4.383c0.745-0.028,1.547-0.2,2.406-0.516v0.967c-1.624,0.444-3.27,0.974-4.937,1.59
			c-0.246-0.802-0.44-1.818-0.585-3.051c-3.502,1.791-5.933,2.686-7.291,2.686c-0.915,0-1.83-0.436-2.745-1.309
			c-0.915-0.872-1.33-2.56-1.244-5.063l0.172-4.826c0.028-0.858-0.004-1.512-0.097-1.963c-0.093-0.451-0.369-0.676-0.827-0.676
			C151.25,198.132,150.706,198.326,149.875,198.712z"/>
		<path d="M172.411,211.753l0.043-0.623c0.716-0.143,1.21-0.286,1.482-0.43c0.272-0.143,0.508-0.479,0.709-1.008
			c0.2-0.529,0.333-1.322,0.397-2.381c0.064-1.058,0.097-2.68,0.097-4.868c0-1.73-0.093-2.882-0.279-3.454
			c-0.187-0.571-0.652-0.857-1.396-0.857c-0.444,0-0.896,0.058-1.354,0.172l0.086-0.698l5.543-3.233
			c0.057,0.889,0.086,2.105,0.086,3.652l2.299-1.311c0.114-0.071,0.215-0.136,0.301-0.193c0.157-0.086,0.336-0.189,0.537-0.312
			c0.2-0.122,0.544-0.329,1.031-0.623c0.487-0.294,0.874-0.533,1.16-0.72l0.172,0.086c0.086,0.086,0.186,0.158,0.301,0.215
			c0.43,0.201,0.766,0.43,1.01,0.688c0.243,0.258,0.365,0.631,0.365,1.117c0,0.559-0.229,1.018-0.688,1.375
			c-0.458,0.358-1.01,0.573-1.654,0.645c0-0.486-0.115-0.859-0.344-1.117c-0.229-0.258-0.552-0.387-0.967-0.387
			c-0.43,0-0.938,0.154-1.525,0.462c-0.587,0.308-1.031,0.599-1.332,0.87c-0.358,0.315-0.569,0.576-0.634,0.784
			s-0.104,0.72-0.118,1.536c-0.086,2.421-0.129,3.703-0.129,3.846c0,2.793,0.143,4.52,0.43,5.178
			c0.129,0.229,0.272,0.369,0.43,0.419c0.157,0.05,0.43,0.075,0.816,0.075l0.559-0.043l2.557-0.043l-0.043,0.881
			c-0.072,0-0.523,0.015-1.354,0.043c-0.831,0.029-1.39,0.043-1.676,0.043L172.411,211.753z"/>
		<path d="M203.621,184.962l-0.043-0.881l2.02,0.086c1.919,0.058,3.137,0.086,3.652,0.086c1.647,0,2.893-0.028,3.738-0.086h1.547
			l0.086,0.816c-0.845,0.058-1.644,0.231-2.396,0.52c-0.752,0.289-1.128,0.693-1.128,1.214c0,0.549,0.548,2.388,1.646,5.518
			c1.097,3.13,2.273,6.323,3.529,9.582c1.255,3.259,1.925,4.96,2.012,5.103l0.882-2.299c0.086-0.172,0.319-0.716,0.699-1.633
			c0.38-0.916,0.671-1.618,0.872-2.105l3.744-8.357c-1.088-2.521-1.792-4.143-2.115-4.866s-0.569-1.185-0.741-1.386
			c-0.53-0.73-1.332-1.124-2.406-1.182l-0.086-0.881c0.974,0.058,1.969,0.086,2.986,0.086c2.606,0,4.956-0.071,7.047-0.215
			l0.043,0.752c-1.017,0.115-1.769,0.272-2.256,0.473c-0.487,0.201-0.784,0.404-0.891,0.612s-0.161,0.462-0.161,0.763
			c0,0.487,0.454,2.092,1.362,4.813c0.908,2.722,1.988,5.758,3.239,9.109s2.077,5.486,2.478,6.402
			c1.062-2.621,2.112-5.363,3.152-8.229c1.04-2.864,1.861-5.292,2.464-7.283c0.603-1.99,0.904-3.289,0.904-3.895
			c0-1.166-0.401-1.904-1.203-2.215c-0.802-0.31-1.783-0.486-2.943-0.529l-0.172-0.709h2.299c1.919,0.058,4.061,0.051,6.424-0.021
			l1.719-0.043l-0.064,0.752c-0.888,0.086-1.622,0.322-2.202,0.709s-1.121,1.039-1.622,1.955c-0.501,0.917-1.075,2.256-1.72,4.018
			l-4.259,11.838c-0.717,1.934-1.147,3.065-1.291,3.395c-0.287,0.717-0.524,1.347-0.71,1.891c-0.187,0.545-0.401,1.175-0.646,1.891
			c-0.244,0.717-0.523,1.547-0.839,2.492l-0.666-0.043c-0.401-1.203-0.801-2.435-1.202-3.695c-0.401-1.26-0.751-2.346-1.051-3.255
			s-0.529-1.564-0.687-1.966l-3.605-9.904c-0.201,0.43-0.459,0.988-0.774,1.676s-0.559,1.196-0.731,1.525l-2.28,5.156
			c-0.574,1.275-1.058,2.449-1.452,3.523s-0.811,2.264-1.248,3.566c-0.437,1.304-0.813,2.441-1.129,3.416h-0.577l-2.519-7.24
			c-0.359-1.103-0.814-2.467-1.367-4.093s-1.198-3.483-1.938-5.575c-0.739-2.091-1.421-3.938-2.045-5.543
			c-0.625-1.604-1.116-2.729-1.473-3.373c-0.515-0.974-1.084-1.59-1.707-1.848C205.198,185.091,204.464,184.962,203.621,184.962z"/>
		<path d="M261.43,200.539l-10.742,2.32c0.071,1.347,0.204,2.389,0.397,3.126s0.576,1.486,1.149,2.245
			c1.103,1.447,2.435,2.17,3.996,2.17c0.645,0,1.332-0.121,2.063-0.365c0.73-0.243,1.54-0.68,2.428-1.311l0.387,0.516
			c-2.492,1.791-4.705,2.686-6.639,2.686c-2.048,0-3.646-0.773-4.791-2.32c-1.146-1.547-1.719-3.322-1.719-5.328
			c0-2.048,0.437-3.749,1.311-5.103c0.874-1.354,1.854-2.338,2.943-2.954c1.088-0.615,1.912-0.924,2.471-0.924
			c0.645,0,1.314,0.104,2.009,0.312c0.694,0.208,1.375,0.605,2.041,1.192c0.666,0.588,1.221,1.39,1.665,2.406
			c0.129,0.215,0.25,0.358,0.365,0.43c0.114,0.072,0.322,0.107,0.623,0.107L261.43,200.539z M250.731,202.021l2.814-0.602
			c0.114-0.057,0.548-0.172,1.3-0.344s1.257-0.279,1.515-0.322c0.745-0.172,1.217-0.293,1.418-0.365
			c0.2-0.071,0.301-0.186,0.301-0.344c0-0.229-0.172-0.619-0.516-1.171s-0.834-1.056-1.472-1.515
			c-0.638-0.458-1.386-0.688-2.245-0.688c-1.074,0-1.837,0.566-2.288,1.697C251.107,199.5,250.831,200.718,250.731,202.021z"/>
		<path d="M267.376,211.71l0.043-0.816c0.559-0.086,0.978-0.211,1.257-0.375c0.279-0.165,0.634-0.519,1.063-1.063
			c0.344-0.386,0.559-0.633,0.645-0.74s0.501-0.582,1.246-1.426l3.008-3.369c-0.702-1.443-1.447-2.827-2.234-4.15
			c-0.788-1.322-1.425-2.17-1.912-2.542c-0.229-0.187-0.563-0.321-0.999-0.407c-0.437-0.086-0.999-0.172-1.687-0.258l0.086-0.773
			l1.805,0.043c0.243,0,0.522,0.004,0.838,0.011c0.315,0.007,0.68,0.019,1.096,0.032c1.432,0,2.649-0.086,3.652-0.258l0.193,0.816
			c-0.43,0.029-0.759,0.086-0.988,0.174c-0.229,0.086-0.344,0.28-0.344,0.583c0,0.462,0.766,2.025,2.299,4.692
			c0.573-0.572,1.235-1.319,1.987-2.242c0.752-0.922,1.128-1.641,1.128-2.156c0-0.529-0.702-0.879-2.105-1.051l0.258-0.688
			c0.444,0.029,1.031,0.072,1.762,0.129c0.387,0.029,0.959,0.043,1.719,0.043c0.759,0,1.611-0.057,2.557-0.172v0.688
			c-0.702,0.043-1.515,0.54-2.438,1.491s-2.303,2.563-4.136,4.837l-0.172,0.215l2.342,4.367c0.874,1.592,1.583,2.588,2.127,2.99
			c0.544,0.4,1.303,0.638,2.277,0.709v0.752c-0.659-0.086-1.955-0.129-3.889-0.129c-1.791,0-2.943,0.043-3.459,0.129l-0.15-0.816
			c0.816-0.043,1.307-0.082,1.472-0.119c0.165-0.035,0.247-0.141,0.247-0.313c-0.602-1.311-1.175-2.507-1.719-3.588l-1.053-2.03
			c-1.16,1.158-2.081,2.231-2.761,3.218c-0.681,0.987-1.021,1.623-1.021,1.91c0,0.242,0.138,0.422,0.415,0.535
			c0.276,0.115,0.79,0.215,1.542,0.301l0.085,0.816c-0.685-0.071-1.274-0.111-1.767-0.118c-0.492-0.007-0.953-0.011-1.38-0.011
			C269.253,211.582,268.275,211.625,267.376,211.71z"/>
		<path d="M288.665,196.843v-1.289l2.857-0.043c0.014-2.492,0.229-4.469,0.645-5.93c0.415-1.461,1.017-2.649,1.805-3.566
			c0.63-0.73,1.418-1.4,2.363-2.009s1.883-1.077,2.814-1.407c0.931-0.329,1.704-0.494,2.32-0.494c0.831,0,1.654,0.148,2.471,0.445
			s1.225,0.648,1.225,1.054c0,0.229-0.158,0.575-0.473,1.034c-0.315,0.46-0.616,0.689-0.902,0.689l-1.719-0.602
			c-1.203-0.443-2.156-0.666-2.857-0.666c-1.132,0-2.041,0.329-2.729,0.986c-0.688,0.658-1.21,1.823-1.568,3.496
			c-0.358,1.672-0.566,3.995-0.623,6.969h5.844v1.375l-5.844,0.043l-0.086,6.123c0,2.464,0.021,4.275,0.064,5.436
			s0.165,1.841,0.365,2.041c0.129,0.101,0.344,0.165,0.645,0.193c0.301,0.029,1.174,0.064,2.621,0.107v0.838
			c-0.845-0.028-2.281-0.05-4.308-0.064c-2.027-0.014-3.721-0.021-5.081-0.021v-0.709c0.759-0.043,1.328-0.14,1.708-0.29
			c0.379-0.15,0.659-0.415,0.838-0.795c0.179-0.38,0.293-0.924,0.344-1.633c0.05-0.709,0.075-1.708,0.075-2.997l0.043-7.176
			c0-0.516-0.058-0.809-0.172-0.881C291.078,196.929,290.183,196.843,288.665,196.843z"/>
		<path d="M302.994,203.654c0-1.26,0.232-2.402,0.698-3.427c0.465-1.024,1.106-1.908,1.923-2.653
			c0.816-0.744,1.769-1.317,2.857-1.719c1.088-0.4,2.256-0.602,3.502-0.602c1.131,0,2.202,0.208,3.212,0.623
			c1.01,0.416,1.894,0.988,2.653,1.719c0.759,0.73,1.357,1.594,1.794,2.589c0.437,0.995,0.655,2.066,0.655,3.212
			c0,1.49-0.354,2.887-1.063,4.189c-0.709,1.304-1.712,2.353-3.008,3.147c-1.296,0.795-2.79,1.192-4.479,1.192
			c-1.275,0-2.589-0.279-3.942-0.838s-2.492-1.457-3.416-2.696S302.994,205.574,302.994,203.654z M305.808,202.472
			c0,1.332,0.265,2.657,0.795,3.975c0.53,1.318,1.271,2.399,2.224,3.244c0.952,0.846,2.001,1.268,3.147,1.268
			c1.002,0,1.912-0.275,2.729-0.827s1.468-1.335,1.955-2.353c0.487-1.017,0.73-2.17,0.73-3.459c0-1.303-0.283-2.574-0.849-3.813
			c-0.566-1.239-1.347-2.249-2.342-3.029c-0.996-0.78-2.095-1.171-3.298-1.171c-0.974,0-1.848,0.266-2.621,0.795
			c-0.773,0.53-1.379,1.268-1.815,2.213C306.026,200.259,305.808,201.312,305.808,202.472z"/>
		<path d="M324.777,211.753l0.043-0.623c0.716-0.143,1.21-0.286,1.482-0.43c0.272-0.143,0.508-0.479,0.709-1.008
			c0.2-0.529,0.333-1.322,0.397-2.381c0.064-1.058,0.097-2.68,0.097-4.868c0-1.73-0.093-2.882-0.279-3.454
			c-0.187-0.571-0.652-0.857-1.396-0.857c-0.444,0-0.896,0.058-1.354,0.172l0.086-0.698l5.543-3.233
			c0.057,0.889,0.086,2.105,0.086,3.652l2.298-1.311c0.115-0.071,0.215-0.136,0.301-0.193c0.158-0.086,0.336-0.189,0.537-0.312
			s0.545-0.329,1.031-0.623s0.873-0.533,1.16-0.72l0.172,0.086c0.086,0.086,0.186,0.158,0.301,0.215
			c0.43,0.201,0.766,0.43,1.01,0.688s0.365,0.631,0.365,1.117c0,0.559-0.229,1.018-0.688,1.375c-0.459,0.358-1.01,0.573-1.654,0.645
			c0-0.486-0.115-0.859-0.344-1.117s-0.551-0.387-0.967-0.387c-0.43,0-0.938,0.154-1.525,0.462s-1.031,0.599-1.332,0.87
			c-0.357,0.315-0.569,0.576-0.634,0.784s-0.104,0.72-0.117,1.536c-0.086,2.421-0.129,3.703-0.129,3.846
			c0,2.793,0.143,4.52,0.429,5.178c0.129,0.229,0.272,0.369,0.43,0.419c0.158,0.05,0.43,0.075,0.816,0.075l0.559-0.043l2.557-0.043
			l-0.043,0.881c-0.072,0-0.523,0.015-1.354,0.043c-0.83,0.029-1.389,0.043-1.676,0.043L324.777,211.753z"/>
		<path d="M353.562,191.267v-3.002c-0.101-0.957-0.19-1.619-0.269-1.982c-0.079-0.365-0.201-0.608-0.365-0.73
			c-0.165-0.121-0.427-0.182-0.784-0.182c-0.387,0-0.867,0.072-1.439,0.215l-0.043-0.655c2.635-1.093,4.525-2.048,5.672-2.868
			l0.516,0.215c-0.158,0.688-0.294,1.885-0.408,3.588c-0.115,1.705-0.229,3.746-0.344,6.123l-0.086,2.127l-0.172,8.658v2.084
			c0,2.049,0.067,3.584,0.204,4.608c0.136,1.024,0.333,1.536,0.591,1.536c0.157,0,0.49-0.071,0.999-0.215
			c0.508-0.143,1.042-0.308,1.601-0.494v0.795c-3.366,1.174-5.186,1.762-5.457,1.762c-0.215,0-0.38-0.29-0.494-0.87
			c-0.115-0.58-0.172-1.45-0.172-2.61c-1.547,0.816-2.779,1.396-3.695,1.74c-0.917,0.344-1.884,0.516-2.9,0.516
			c-1.061,0-2.099-0.275-3.115-0.827c-1.018-0.552-1.852-1.356-2.503-2.417c-0.652-1.06-0.978-2.284-0.978-3.674
			c0-1.904,0.426-3.498,1.278-4.78c0.852-1.282,1.833-2.249,2.943-2.9c1.109-0.651,2.17-1.117,3.18-1.396s1.665-0.419,1.966-0.419
			c0.443,0,1.01,0.058,1.697,0.172c0.688,0.115,1.504,0.294,2.449,0.537C353.519,194.333,353.562,192.783,353.562,191.267z
			 M353.111,206.167l0.129-7.348c0-0.329-0.247-0.627-0.741-0.892s-1.039-0.469-1.633-0.612c-0.595-0.143-1.25-0.265-1.966-0.365
			c-0.717-0.1-1.132-0.15-1.246-0.15c-0.917,0-1.787,0.24-2.61,0.72c-0.824,0.479-1.482,1.136-1.977,1.966
			c-0.494,0.831-0.741,1.755-0.741,2.771c0,1.576,0.286,2.937,0.859,4.082c0.572,1.146,1.35,2.02,2.331,2.621
			c0.98,0.602,2.059,0.902,3.233,0.902c0.83,0,1.586-0.146,2.267-0.44c0.68-0.294,1.378-0.662,2.095-1.106
			c-0.015-0.1-0.019-0.379-0.011-0.838C353.107,207.02,353.111,206.583,353.111,206.167z"/>
	</g>
	<g display="inline">
		<path d="M419.933,184.876l-0.129-0.752h2.127c1.045,0.043,1.815,0.075,2.31,0.097s0.776,0.032,0.849,0.032
			c0.4,0,0.938-0.014,1.611-0.043c0.673-0.028,1.482-0.057,2.428-0.086l1.031,0.043l-0.107,0.816
			c-1.003,0.088-1.684,0.175-2.041,0.262c-0.358,0.088-0.537,0.285-0.537,0.59c0,0.32,0.533,1.247,1.601,2.779
			c1.066,1.533,2.299,3.216,3.695,5.049c1.396,1.834,2.388,3.094,2.976,3.781c0.43-0.587,1.074-1.511,1.934-2.771l1.633-2.449
			c0.572-0.83,1.214-1.88,1.923-3.147s1.063-2.161,1.063-2.683c0-1.04-0.967-1.51-2.9-1.41l0.086-0.816l1.805,0.086
			c0.143,0,0.615,0.015,1.418,0.043c0.802,0.029,1.268,0.043,1.396,0.043c0.215,0,0.916-0.014,2.105-0.043
			c1.188-0.028,1.891-0.043,2.105-0.043l-0.043,0.881c-0.945,0.043-1.712,0.204-2.299,0.483c-0.588,0.279-1.261,0.878-2.02,1.794
			c-0.76,0.917-1.798,2.371-3.115,4.361l-2.363,3.566l-2.256,3.523l0.086,6.961c0,1.719,0.024,2.861,0.075,3.427
			c0.05,0.565,0.168,0.942,0.354,1.128c0.186,0.187,0.559,0.352,1.117,0.494c0.486,0.101,1.246,0.294,2.277,0.58l-0.043,0.559
			c0.114,0-0.423-0.043-1.611-0.129l-1.332-0.086c-0.573-0.058-1.039-0.086-1.396-0.086h-0.924c-0.215,0-1.082,0.057-2.6,0.172
			c-1.218,0.143-2.099,0.215-2.643,0.215v-0.688c1.489-0.057,2.484-0.351,2.986-0.881c0.229-0.2,0.387-0.473,0.473-0.816
			s0.146-1.109,0.183-2.299c0.035-1.188,0.054-3.086,0.054-5.693c0-1.432-0.015-2.313-0.043-2.643l-1.762-2.6
			c-0.874-1.246-1.705-2.398-2.492-3.459c-0.788-1.06-1.426-1.869-1.912-2.428c-1.533-1.934-2.629-3.255-3.287-3.964
			c-0.659-0.709-1.225-1.167-1.697-1.375S420.892,184.919,419.933,184.876z"/>
		<path d="M450.092,203.654c0-1.26,0.232-2.402,0.698-3.427c0.465-1.024,1.106-1.908,1.923-2.653
			c0.816-0.744,1.769-1.317,2.857-1.719c1.088-0.4,2.256-0.602,3.502-0.602c1.131,0,2.202,0.208,3.212,0.623
			c1.01,0.416,1.894,0.988,2.653,1.719c0.759,0.73,1.356,1.594,1.794,2.589c0.437,0.995,0.655,2.066,0.655,3.212
			c0,1.49-0.354,2.887-1.063,4.189c-0.709,1.304-1.712,2.353-3.008,3.147c-1.297,0.795-2.79,1.192-4.479,1.192
			c-1.275,0-2.589-0.279-3.942-0.838s-2.492-1.457-3.416-2.696S450.092,205.574,450.092,203.654z M452.907,202.472
			c0,1.332,0.265,2.657,0.795,3.975c0.529,1.318,1.271,2.399,2.224,3.244c0.952,0.846,2.001,1.268,3.147,1.268
			c1.002,0,1.912-0.275,2.729-0.827s1.468-1.335,1.955-2.353c0.486-1.017,0.73-2.17,0.73-3.459c0-1.303-0.283-2.574-0.849-3.813
			c-0.566-1.239-1.347-2.249-2.342-3.029c-0.996-0.78-2.095-1.171-3.298-1.171c-0.975,0-1.848,0.266-2.621,0.795
			c-0.773,0.53-1.379,1.268-1.815,2.213C453.125,200.259,452.907,201.312,452.907,202.472z"/>
		<path d="M474.773,198.712v-0.892l4.788-2.653l0.432-0.172c0.201,0,0.302,0.129,0.302,0.387l-0.269,3.695
			c-0.18,2.922-0.269,4.727-0.269,5.414c0,1.619,0.214,2.961,0.643,4.028s1.429,1.601,3.001,1.601c0.5,0,1.018-0.082,1.554-0.247
			s1.157-0.415,1.864-0.752s1.261-0.604,1.661-0.806c0-1.07,0.021-1.769,0.064-2.098l0.129-4.386c0.043-1.327,0-2.265-0.129-2.813
			c-0.129-0.55-0.376-0.902-0.741-1.06s-0.971-0.25-1.815-0.278l-0.043-0.827l5.736-1.343c-0.072,1.289-0.147,2.518-0.226,3.685
			c-0.079,1.167-0.15,2.417-0.215,3.749s-0.097,2.32-0.097,2.965c0,2.092,0.136,3.553,0.408,4.383
			c0.744-0.028,1.547-0.2,2.406-0.516v0.967c-1.624,0.444-3.27,0.974-4.938,1.59c-0.245-0.802-0.44-1.818-0.584-3.051
			c-3.503,1.791-5.933,2.686-7.291,2.686c-0.915,0-1.83-0.436-2.744-1.309c-0.915-0.872-1.33-2.56-1.244-5.063l0.172-4.826
			c0.028-0.858-0.004-1.512-0.097-1.963c-0.094-0.451-0.369-0.676-0.827-0.676C476.148,198.132,475.603,198.326,474.773,198.712z"/>
		<path d="M500.829,211.753l0.043-0.623c0.716-0.143,1.21-0.286,1.482-0.43c0.271-0.143,0.508-0.479,0.709-1.008
			c0.2-0.529,0.333-1.322,0.397-2.381c0.064-1.058,0.097-2.68,0.097-4.868c0-1.73-0.094-2.882-0.279-3.454
			c-0.187-0.571-0.652-0.857-1.396-0.857c-0.444,0-0.896,0.058-1.354,0.172l0.086-0.698l5.543-3.233
			c0.057,0.889,0.086,2.105,0.086,3.652l2.299-1.311c0.114-0.071,0.215-0.136,0.301-0.193c0.157-0.086,0.336-0.189,0.537-0.312
			c0.2-0.122,0.544-0.329,1.031-0.623c0.486-0.294,0.873-0.533,1.16-0.72l0.172,0.086c0.086,0.086,0.186,0.158,0.301,0.215
			c0.43,0.201,0.766,0.43,1.01,0.688c0.243,0.258,0.365,0.631,0.365,1.117c0,0.559-0.229,1.018-0.688,1.375
			c-0.459,0.358-1.01,0.573-1.654,0.645c0-0.486-0.115-0.859-0.344-1.117c-0.229-0.258-0.552-0.387-0.967-0.387
			c-0.43,0-0.938,0.154-1.525,0.462c-0.588,0.308-1.031,0.599-1.332,0.87c-0.358,0.315-0.569,0.576-0.634,0.784
			s-0.104,0.72-0.118,1.536c-0.086,2.421-0.129,3.703-0.129,3.846c0,2.793,0.143,4.52,0.43,5.178
			c0.129,0.229,0.271,0.369,0.43,0.419c0.157,0.05,0.43,0.075,0.816,0.075l0.559-0.043l2.557-0.043l-0.043,0.881
			c-0.072,0-0.523,0.015-1.354,0.043c-0.831,0.029-1.39,0.043-1.676,0.043L500.829,211.753z"/>
		<path d="M529.398,184.962l-0.043-0.881l2.02,0.086c1.919,0.058,3.137,0.086,3.652,0.086c1.646,0,2.893-0.028,3.738-0.086h1.547
			l0.086,0.816c-0.846,0.058-1.644,0.231-2.396,0.52c-0.752,0.289-1.128,0.693-1.128,1.214c0,0.549,0.549,2.388,1.646,5.518
			c1.098,3.13,2.274,6.323,3.529,9.582s1.926,4.96,2.012,5.103l0.882-2.299c0.086-0.172,0.319-0.716,0.699-1.633
			c0.38-0.916,0.671-1.618,0.872-2.105l3.743-8.357c-1.087-2.521-1.792-4.143-2.114-4.866s-0.569-1.185-0.741-1.386
			c-0.53-0.73-1.332-1.124-2.406-1.182l-0.086-0.881c0.974,0.058,1.969,0.086,2.986,0.086c2.606,0,4.955-0.071,7.047-0.215
			l0.043,0.752c-1.018,0.115-1.77,0.272-2.256,0.473c-0.486,0.201-0.784,0.404-0.892,0.612s-0.161,0.462-0.161,0.763
			c0,0.487,0.454,2.092,1.362,4.813c0.908,2.722,1.987,5.758,3.239,9.109c1.251,3.352,2.077,5.486,2.478,6.402
			c1.062-2.621,2.112-5.363,3.152-8.229c1.04-2.864,1.861-5.292,2.464-7.283c0.603-1.99,0.904-3.289,0.904-3.895
			c0-1.166-0.401-1.904-1.203-2.215c-0.803-0.31-1.783-0.486-2.943-0.529l-0.172-0.709h2.299c1.919,0.058,4.061,0.051,6.424-0.021
			l1.719-0.043l-0.064,0.752c-0.889,0.086-1.622,0.322-2.202,0.709s-1.121,1.039-1.622,1.955c-0.502,0.917-1.074,2.256-1.72,4.018
			l-4.259,11.838c-0.717,1.934-1.147,3.065-1.291,3.395c-0.286,0.717-0.523,1.347-0.71,1.891c-0.187,0.545-0.401,1.175-0.645,1.891
			c-0.244,0.717-0.523,1.547-0.839,2.492l-0.666-0.043c-0.401-1.203-0.802-2.435-1.202-3.695c-0.4-1.26-0.751-2.346-1.052-3.255
			c-0.3-0.909-0.529-1.564-0.687-1.966l-3.604-9.904c-0.201,0.43-0.459,0.988-0.774,1.676c-0.316,0.688-0.56,1.196-0.731,1.525
			l-2.28,5.156c-0.573,1.275-1.058,2.449-1.452,3.523s-0.811,2.264-1.247,3.566c-0.438,1.304-0.814,2.441-1.13,3.416h-0.576
			l-2.519-7.24c-0.359-1.103-0.815-2.467-1.368-4.093c-0.552-1.626-1.198-3.483-1.938-5.575c-0.739-2.091-1.421-3.938-2.045-5.543
			c-0.624-1.604-1.115-2.729-1.473-3.373c-0.516-0.974-1.084-1.59-1.707-1.848C530.975,185.091,530.242,184.962,529.398,184.962z"/>
		<path d="M576.702,199.035l-2.643,1.182c-0.115-0.458-0.172-0.795-0.172-1.01c0-0.73,0.447-1.407,1.343-2.03
			c0.895-0.623,1.904-1.128,3.029-1.515c1.124-0.387,1.908-0.58,2.353-0.58c0.387,0,0.866,0.172,1.439,0.516
			c0.572,0.344,1.031,0.688,1.375,1.031c0.301,0.287,0.533,0.569,0.698,0.849c0.164,0.279,0.312,0.72,0.44,1.321
			s0.193,1.368,0.193,2.299c0,0.272-0.036,1.232-0.107,2.879l-0.086,1.611c-0.058,0.773-0.086,1.39-0.086,1.848
			c0,0.588,0.078,1.218,0.236,1.891c0.143,0.688,0.465,1.031,0.967,1.031c0.559,0,1.303-0.207,2.234-0.623v0.881l-3.158,1.268
			c-0.631,0.215-0.988,0.322-1.074,0.322c-0.33,0-0.655-0.219-0.978-0.655s-0.584-0.956-0.784-1.558
			c-2.65,1.476-4.684,2.213-6.102,2.213c-0.874,0-1.533-0.254-1.977-0.763c-0.444-0.509-0.666-1.271-0.666-2.288
			c0-0.974,0.118-1.697,0.354-2.17s0.619-0.845,1.149-1.117c1.074-0.544,2.213-0.949,3.416-1.214s2.463-0.49,3.781-0.677
			l0.107-2.643v-0.709c0-1.217-0.348-2.181-1.042-2.89c-0.695-0.709-1.508-1.063-2.438-1.063c-0.444,0-0.892,0.125-1.343,0.376
			s-0.677,0.605-0.677,1.063C576.487,198.34,576.558,198.648,576.702,199.035z M581.793,209.197c-0.043-0.473,0-1.818,0.129-4.039
			c-1.884-0.129-3.397,0.101-4.539,0.688c-1.143,0.588-1.713,1.325-1.713,2.213c0,0.645,0.175,1.254,0.524,1.826
			c0.35,0.573,0.831,0.859,1.445,0.859C578.325,210.744,579.709,210.228,581.793,209.197z"/>
		<path d="M593.025,196.714v-0.666c0.701,0.086,1.683,0.129,2.943,0.129c1.475,0,2.943-0.086,4.404-0.258l-0.064,0.795
			c-0.588,0.115-1.01,0.247-1.268,0.397s-0.387,0.44-0.387,0.87c0,0.688,0.309,2.178,0.927,4.469
			c0.618,2.292,1.352,4.569,2.199,6.832l1.415-2.535c0.614-1.06,1.343-2.535,2.187-4.426c0.843-1.891,1.265-3.187,1.265-3.889
			c0-1.002-0.996-1.625-2.986-1.869l0.301-0.688c1.704,0.172,3.187,0.258,4.447,0.258c0.931,0,1.64-0.043,2.127-0.129l-0.043,0.709
			c-0.387,0.058-0.734,0.204-1.042,0.44c-0.309,0.236-0.595,0.565-0.859,0.988c-0.266,0.423-0.555,0.956-0.869,1.601l-2.339,4.834
			c-0.028,0.072-0.572,1.132-1.63,3.18c-1.53,3.008-2.677,5.399-3.438,7.176c-0.763,1.775-1.322,3.251-1.677,4.426
			c-0.355,1.174-0.766,2.729-1.229,4.662h-4.576v-0.73c0.946-0.215,1.706-0.548,2.28-0.999c0.573-0.451,1.09-1.067,1.548-1.848
			c0.459-0.78,1.033-1.959,1.722-3.534l1.678-3.738c-0.818-3.079-1.571-5.786-2.261-8.121c-0.688-2.334-1.342-4.232-1.959-5.693
			c-0.287-0.744-0.577-1.3-0.87-1.665c-0.294-0.365-0.566-0.595-0.816-0.688C593.902,196.912,593.526,196.815,593.025,196.714z"/>
	</g>
	<rect x="0.655" y="469.738" display="inline" fill="none" width="680.022" height="71.248"/>
	<text transform="matrix(1 0 0 1 84.0435 499.3491)" display="inline"><tspan x="0" y="0" font-family="'Centaur'" font-size="44" letter-spacing="5">Y</tspan><tspan x="34.627" y="0" font-family="'Centaur'" font-size="44" letter-spacing="1">ou</tspan><tspan x="78.946" y="0" font-family="'Centaur'" font-size="44" letter-spacing="5">r</tspan><tspan x="97.998" y="0" font-family="'Centaur'" font-size="44" letter-spacing="1"> </tspan><tspan x="110.543" y="0" font-family="'Centaur'" font-size="44" letter-spacing="5">We</tspan><tspan x="180.25" y="0" font-family="'Centaur'" font-size="44" letter-spacing="2">x</tspan><tspan x="200.743" y="0" font-family="'Centaur'" font-size="44">f</tspan><tspan x="214.9" y="0" font-family="'Centaur'" font-size="44" letter-spacing="1">o</tspan><tspan x="237.307" y="0" font-family="'Centaur'" font-size="44">r</tspan><tspan x="251.826" y="0" font-family="'Centaur'" font-size="44" letter-spacing="5">d  Your</tspan><tspan x="415.351" y="0" font-family="'Centaur'" font-size="44"> </tspan><tspan x="425.256" y="0" font-family="'Centaur'" font-size="44" letter-spacing="5">Way</tspan></text>
	<rect x="-558.068" y="335.335" display="inline" fill="none" width="380.153" height="165"/>
	<text transform="matrix(1 0 0 1 -558.0684 450.2339)" display="inline" font-family="'JosefinSans'" font-size="150">UEST</text>
</g>
<g id="options">
	<path fill="#7DB159" d="M-240.656-230.614c0,6.627-5.373,12-12,12h-657.667c-6.627,0-12-5.373-12-12v-203.333
		c0-6.627,5.373-12,12-12h657.667c6.627,0,12,5.373,12,12V-230.614z"/>
	<path d="M-657.047,89.025c-1.852-2.85-3.9-6-6.15-9.45c-2.25-3.45-4.575-7.024-6.975-10.725c-2.4-3.699-4.725-7.275-6.975-10.725
		s-4.301-6.624-6.15-9.525c-1.852-2.899-3.375-5.25-4.575-7.05l33.45-52.65h-12.15c-1.5,2.4-3.401,5.452-5.7,9.15
		c-2.301,3.701-4.702,7.552-7.2,11.55c-2.501,4-4.901,7.875-7.2,11.625c-2.302,3.75-4.2,6.825-5.7,9.225l-1.8,3.6l-1.8-3.6
		c-1.601-2.4-3.577-5.475-5.925-9.225c-2.351-3.75-4.8-7.625-7.35-11.625c-2.55-3.999-5.001-7.849-7.35-11.55
		c-2.351-3.698-4.275-6.75-5.775-9.15h-7.434v0h-67.5v0.889c-1.838,4.638-3.832,9.636-5.992,15.011
		c-2.25,5.602-4.477,11.227-6.675,16.875c-2.201,5.651-4.35,11.227-6.45,16.725c-2.1,5.501-4.001,10.526-5.7,15.075
		c-1.701,4.551-3.15,8.5-4.35,11.85c-1.2,3.352-1.95,5.775-2.25,7.275l-1.2,4.5c-0.202-0.799-0.401-1.549-0.6-2.25
		c-0.202-0.699-0.401-1.449-0.6-2.25c-0.801-2.4-1.875-5.449-3.225-9.15c-1.35-3.699-2.827-7.725-4.425-12.075
		c-1.601-4.35-3.3-8.925-5.1-13.725c-1.8-4.8-3.551-9.499-5.25-14.1c-4-10.8-8.351-22.249-13.05-34.35h-9.9
		c0.098,0.4,0.375,1.226,0.825,2.475c0.45,1.252,0.975,2.775,1.575,4.575s1.275,3.75,2.025,5.85s1.523,4.251,2.325,6.45
		c1.8,5.1,3.799,10.751,6,16.95c-3.101,8.4-5.951,16.001-8.55,22.8c-1.102,2.902-2.175,5.752-3.225,8.55
		c-1.05,2.801-1.976,5.325-2.775,7.575c-0.801,2.25-1.477,4.125-2.025,5.625c-0.551,1.5-0.876,2.4-0.975,2.7
		c-0.101,0.3-0.352,1.026-0.75,2.175c-0.4,1.151-0.6,1.875-0.6,2.175l-1.2-4.5c-0.401-1.399-1.177-3.75-2.325-7.05
		c-1.15-3.3-2.576-7.223-4.275-11.775c-1.702-4.549-3.577-9.548-5.625-15c-2.051-5.449-4.176-11.025-6.375-16.725
		c-2.201-5.7-4.401-11.374-6.6-17.025c-2.201-5.648-4.251-10.924-6.15-15.825h-11.55c7.5,18.701,14.749,37.301,21.75,55.8
		c6.999,18.501,14.25,37.151,21.75,55.95c0.9-2.501,1.95-5.299,3.15-8.4c1.2-3.098,2.449-6.3,3.75-9.6
		c1.298-3.3,2.625-6.624,3.975-9.975c1.35-3.349,2.625-6.624,3.825-9.825c2.899-7.399,5.85-15,8.85-22.8
		c0.099-0.398,0.199-0.799,0.3-1.2c0.098-0.3,0.199-0.649,0.3-1.05c0.099-0.398,0.199-0.699,0.3-0.9
		c0.099,0.501,0.274,1.05,0.525,1.65c0.248,0.6,0.473,1.102,0.675,1.5l23.4,60.45c0.9-2.5,2.273-6.15,4.125-10.95
		c1.849-4.8,3.975-10.298,6.375-16.5c2.4-6.199,5-12.9,7.8-20.1c2.798-7.2,5.648-14.524,8.55-21.975
		c1.884-4.839,3.753-9.607,5.617-14.343V96h60.834l0,0h12.6l27-43.65c0.199-0.199,0.474-0.649,0.825-1.35
		c0.349-0.698,0.675-1.399,0.975-2.1c0.799,1.102,1.725,2.576,2.775,4.425c1.05,1.852,1.924,3.276,2.625,4.275l24.45,38.4h12.75
		C-653.672,94.2-655.198,91.875-657.047,89.025z M-705.722,48.15c-1.901,2.902-3.952,6.101-6.15,9.6
		c-2.201,3.501-4.5,7.102-6.9,10.8c-2.4,3.701-4.725,7.301-6.975,10.8c-1.611,2.507-3.115,4.852-4.521,7.049h-56.838V46.95h51.3
		v-9.6h-51.3V-1.8h57.3v-1.372c1.571,2.413,3.245,5.011,5.034,7.822c2.1,3.3,4.324,6.727,6.675,10.275
		c2.348,3.551,4.575,7.001,6.675,10.35c2.1,3.352,4.05,6.401,5.85,9.15c1.8,2.752,3.249,4.976,4.35,6.675
		C-702.324,42.9-703.824,45.251-705.722,48.15z"/>
	<path fill="#D0D0D0" d="M-517.207,0.077c19.997,28.696,12.945,68.171-15.751,88.169c-28.698,19.999-68.174,12.946-88.171-15.75
		c-19.999-28.698-12.946-68.173,15.751-88.172C-576.681-35.672-537.206-28.621-517.207,0.077z M-520.352,2.269
		c-18.757-26.917-55.916-33.555-82.833-14.798c-26.917,18.757-33.555,55.917-14.798,82.833
		c18.758,26.917,55.917,33.555,82.833,14.797C-508.232,66.344-501.594,29.185-520.352,2.269z"/>
	<path fill="#808080" d="M-600.735-23.515l-26.274-22.762l12.604,32.216c1.994-1.775,4.099-3.463,6.343-5.027
		C-605.686-20.744-603.234-22.204-600.735-23.515z"/>
	<path fill="#808080" d="M-551.24,94.563l56.822,49.43l-29.408-57.988l-22.896-0.983c7.932-3.458,14.721-8.62,20.366-15.485
		c5.645-6.862,9.285-14.874,10.921-24.029c1.319-7.383,1.135-14.602-0.55-21.659c-1.687-7.056-4.525-13.479-8.518-19.273
		c-3.995-5.792-9.036-10.704-15.12-14.739c-6.086-4.032-12.82-6.708-20.203-8.027c-7.383-1.319-14.604-1.136-21.659,0.549
		c-7.058,1.687-13.461,4.555-19.212,8.605c-5.753,4.053-10.616,9.101-14.591,15.145c-3.975,6.047-6.622,12.76-7.941,20.143
		c-1.319,7.383-1.161,14.599,0.476,21.646c1.636,7.049,4.456,13.442,8.458,19.186c4.002,5.743,9.024,10.603,15.071,14.578
		c6.044,3.975,12.759,6.622,20.143,7.941L-551.24,94.563z M-577.366,80.004c-6.006-1.073-11.459-3.24-16.361-6.504
		c-4.903-3.261-8.968-7.24-12.192-11.93c-3.227-4.69-5.518-9.923-6.871-15.703c-1.356-5.778-1.488-11.718-0.397-17.823
		c1.09-6.103,3.271-11.629,6.543-16.583c3.27-4.951,7.236-9.093,11.896-12.427c4.657-3.332,9.853-5.68,15.582-7.044
		c5.729-1.362,11.595-1.509,17.601-0.436c6.003,1.072,11.481,3.246,16.435,6.517c4.951,3.272,9.061,7.283,12.327,12.03
		c3.266,4.75,5.575,10.013,6.931,15.791c1.354,5.78,1.486,11.72,0.396,17.822c-1.091,6.105-3.272,11.632-6.543,16.583
		c-3.272,4.953-7.257,9.065-11.956,12.34c-4.699,3.274-9.939,5.591-15.716,6.944C-565.472,80.936-571.363,81.076-577.366,80.004z"/>
	<path fill="#808080" d="M-509.652,5.048l23.047-26.602l-32.641,12.77c1.823,2.035,3.555,4.187,5.156,6.485
		C-512.429,0.083-510.964,2.542-509.652,5.048z"/>
	<path fill="#808080" d="M-629.089,67.914l-22.929,25.803l32.437-12.223c-1.864-2.071-3.634-4.264-5.269-6.609
		C-626.427,72.621-627.826,70.29-629.089,67.914z"/>
	<text transform="matrix(1 0 0 1 -38.3364 -234.4116)" font-family="'JosefinSans'" font-size="150">W</text>
	<text transform="matrix(1 0 0 1 75.4136 -234.4116)" font-family="'JosefinSans'" font-size="150">e</text>
	<text transform="matrix(1 0 0 1 133.6636 -234.4106)" font-family="'JosefinSans'" font-size="150">x</text>
	<text transform="matrix(1 0 0 1 350.6636 -234.4116)" font-family="'JosefinSans'" font-size="150">u</text>
	<text transform="matrix(1 0 0 1 352.0581 -234.4116)" font-family="'JosefinSans'" font-size="150">u</text>
	<text transform="matrix(1 0 0 1 412.6636 -234.4116)" font-family="'JosefinSans'" font-size="150">e</text>
	<text transform="matrix(1 0 0 1 474.6636 -234.4116)" font-family="'JosefinSans'" font-size="150">s</text>
	<text transform="matrix(1 0 0 1 518.6636 -234.4116)" font-family="'JosefinSans'" font-size="150">t</text>
	<path fill="#D0D0D0" d="M334.963-330.334c19.997,28.696,12.945,68.171-15.751,88.169c-28.698,19.999-68.174,12.946-88.171-15.75
		c-19.999-28.698-12.946-68.173,15.751-88.172C275.489-366.083,314.964-359.032,334.963-330.334z M331.818-328.143
		c-18.757-26.917-55.916-33.555-82.833-14.798c-26.917,18.757-33.555,55.917-14.798,82.833
		c18.758,26.917,55.917,33.555,82.833,14.797C343.938-264.067,350.576-301.226,331.818-328.143z"/>
	<path fill="#808080" d="M251.435-353.926l-26.274-22.762l12.604,32.216c1.994-1.775,4.099-3.463,6.343-5.027
		C246.484-351.155,248.936-352.615,251.435-353.926z"/>
	<path fill="#808080" d="M300.93-235.849l56.822,49.43l-29.408-57.988l-22.896-0.983c7.932-3.458,14.721-8.62,20.366-15.485
		c5.645-6.862,9.285-14.874,10.921-24.029c1.319-7.383,1.135-14.602-0.55-21.659c-1.687-7.056-4.525-13.479-8.518-19.273
		c-3.995-5.792-9.036-10.704-15.12-14.739c-6.086-4.032-12.82-6.708-20.203-8.027c-7.383-1.319-14.604-1.136-21.659,0.549
		c-7.058,1.687-13.461,4.555-19.212,8.605c-5.753,4.053-10.616,9.101-14.591,15.145c-3.975,6.047-6.622,12.76-7.941,20.143
		c-1.319,7.383-1.161,14.599,0.476,21.646c1.636,7.049,4.456,13.442,8.458,19.186c4.002,5.743,9.024,10.603,15.071,14.578
		c6.044,3.975,12.759,6.622,20.143,7.941L300.93-235.849z M274.804-250.407c-6.006-1.073-11.459-3.24-16.361-6.504
		c-4.903-3.261-8.968-7.24-12.192-11.93c-3.227-4.69-5.518-9.923-6.871-15.703c-1.356-5.778-1.488-11.718-0.397-17.823
		c1.09-6.103,3.271-11.629,6.543-16.583c3.27-4.951,7.236-9.093,11.896-12.427c4.657-3.332,9.853-5.68,15.582-7.044
		c5.729-1.362,11.595-1.509,17.601-0.436c6.003,1.072,11.481,3.246,16.435,6.517c4.951,3.272,9.061,7.283,12.327,12.03
		c3.266,4.75,5.575,10.013,6.931,15.791c1.354,5.78,1.486,11.72,0.396,17.822c-1.091,6.105-3.272,11.632-6.543,16.583
		c-3.272,4.953-7.257,9.065-11.956,12.34c-4.699,3.274-9.939,5.591-15.716,6.944C286.698-249.476,280.807-249.335,274.804-250.407z"
		/>
	<path fill="#808080" d="M342.518-325.363l23.047-26.602l-32.641,12.77c1.823,2.035,3.555,4.187,5.156,6.485
		C339.741-330.328,341.206-327.869,342.518-325.363z"/>
	<path fill="#808080" d="M223.081-262.498l-22.929,25.803l32.437-12.223c-1.864-2.071-3.634-4.264-5.269-6.609
		C225.743-257.791,224.344-260.122,223.081-262.498z"/>
	
		<text transform="matrix(1 0 0 1 -613.3364 -557.7134)" stroke="#000000" stroke-miterlimit="10" font-family="'JosefinSans'" font-size="150">w</text>
	<text transform="matrix(1 0 0 1 -524.5864 -556.7144)" font-family="'JosefinSans'" font-size="150">e</text>
	<text transform="matrix(1 0 0 1 -466.3364 -556.7134)" font-family="'JosefinSans'" font-size="150">x</text>
	<text transform="matrix(1 0 0 1 1004.6636 -508.7212)" font-family="'JosefinSans'" font-size="150">u</text>
	<text transform="matrix(1 0 0 1 1006.0581 -508.7212)" font-family="'JosefinSans'" font-size="150">u</text>
	<text transform="matrix(1 0 0 1 1066.6636 -508.7212)" font-family="'JosefinSans'" font-size="150">e</text>
	<text transform="matrix(1 0 0 1 1128.6636 -508.7212)" font-family="'JosefinSans'" font-size="150">s</text>
	<text transform="matrix(1 0 0 1 1172.6636 -508.7212)" font-family="'JosefinSans'" font-size="150">t</text>
	<g>
		<text transform="matrix(1 0 0 1 359.3403 -577.8003)" fill="#FFFFFF" font-family="'JosefinSans'" font-size="150">uest</text>
		<text transform="matrix(1 0 0 1 -33.8164 -577.8003)" fill="#FFFFFF" font-family="'JosefinSans'" font-size="150">wex</text>
		<path fill="#D0D0D0" d="M334.963-652.637c19.997,28.696,12.945,68.171-15.751,88.169c-28.698,19.999-68.174,12.946-88.171-15.75
			c-19.999-28.698-12.946-68.173,15.751-88.172C275.489-688.386,314.964-681.335,334.963-652.637z M331.818-650.445
			c-18.757-26.917-55.916-33.555-82.833-14.798c-26.917,18.757-33.555,55.917-14.798,82.833
			c18.758,26.917,55.917,33.555,82.833,14.797C343.938-586.37,350.576-623.529,331.818-650.445z"/>
		<path fill="#808080" d="M251.435-676.229l-26.274-22.762l12.604,32.216c1.994-1.775,4.099-3.463,6.343-5.027
			C246.484-673.458,248.936-674.918,251.435-676.229z"/>
		<path fill="#808080" d="M300.93-558.151l56.822,49.43l-29.408-57.988l-22.896-0.983c7.932-3.458,14.721-8.62,20.366-15.485
			c5.645-6.862,9.285-14.874,10.921-24.029c1.319-7.383,1.135-14.602-0.55-21.659c-1.687-7.056-4.525-13.479-8.518-19.273
			c-3.995-5.792-9.036-10.704-15.12-14.739c-6.086-4.032-12.82-6.708-20.203-8.027c-7.383-1.319-14.604-1.136-21.659,0.549
			c-7.058,1.687-13.461,4.555-19.212,8.605c-5.753,4.053-10.616,9.101-14.591,15.145c-3.975,6.047-6.622,12.76-7.941,20.143
			c-1.319,7.383-1.161,14.599,0.476,21.646c1.636,7.049,4.456,13.442,8.458,19.186c4.002,5.743,9.024,10.603,15.071,14.578
			c6.044,3.975,12.759,6.622,20.143,7.941L300.93-558.151z M274.804-572.71c-6.006-1.073-11.459-3.24-16.361-6.504
			c-4.903-3.261-8.968-7.24-12.192-11.93c-3.227-4.69-5.518-9.923-6.871-15.703c-1.356-5.778-1.488-11.718-0.397-17.823
			c1.09-6.103,3.271-11.629,6.543-16.583c3.27-4.951,7.236-9.093,11.896-12.427c4.657-3.332,9.853-5.68,15.582-7.044
			c5.729-1.362,11.595-1.509,17.601-0.436c6.003,1.072,11.481,3.246,16.435,6.517c4.951,3.272,9.061,7.283,12.327,12.03
			c3.266,4.75,5.575,10.013,6.931,15.791c1.354,5.78,1.486,11.72,0.396,17.822c-1.091,6.105-3.272,11.632-6.543,16.583
			c-3.272,4.953-7.257,9.065-11.956,12.34c-4.699,3.274-9.939,5.591-15.716,6.944C286.698-571.778,280.807-571.638,274.804-572.71z"
			/>
		<path fill="#808080" d="M342.518-647.666l23.047-26.602l-32.641,12.77c1.823,2.035,3.555,4.187,5.156,6.485
			C339.741-652.631,341.206-650.172,342.518-647.666z"/>
		<path fill="#808080" d="M223.081-584.8l-22.929,25.803l32.437-12.223c-1.864-2.071-3.634-4.264-5.269-6.609
			C225.743-580.093,224.344-582.424,223.081-584.8z"/>
	</g>
	<path d="M1282.715-317.523c0,34.977-28.355,63.333-63.332,63.333c-34.979,0-63.334-28.355-63.334-63.333
		c0-34.979,28.355-63.333,63.334-63.333C1254.36-380.856,1282.715-352.501,1282.715-317.523z M1273.047-317.523
		c0-29.59-24.074-53.664-53.664-53.664s-53.664,24.074-53.664,53.664c0,29.59,24.074,53.665,53.664,53.665
		S1273.047-287.933,1273.047-317.523z"/>
	<g>
		<path d="M1227.674-384.634l-8.543-33.697l-8.078,33.638c2.65-0.316,5.342-0.498,8.078-0.498
			C1222.028-385.191,1224.874-384.988,1227.674-384.634z"/>
		<path d="M1210.588-250.747l8.543,64.328l9.025-64.391c-2.954,0.395-5.963,0.619-9.025,0.619
			C1216.235-250.19,1213.389-250.394,1210.588-250.747z"/>
		<path d="M1286.072-309.125l34.117-8.648l-34.08-8.185c0.332,2.712,0.522,5.467,0.522,8.268
			C1286.631-314.787,1286.427-311.932,1286.072-309.125z"/>
		<path d="M1152.137-325.834l-33.563,8.061l33.601,8.518c-0.345-2.765-0.543-5.576-0.543-8.435
			C1151.631-320.45,1151.816-323.163,1152.137-325.834z"/>
	</g>
	<path d="M-406.524,46.95h51.018h0.283v-9.6h-51.301V-1.8h57.301v-9.3h-67.85v97.55h-31.391c0,0-23.442-1.75-24.409-28.35v-70.2
		h-10.2V64.32c0,0,2.535,31.879,37.399,31.879h39.149V86.157V46.95z"/>
	<path d="M-309.839-11.1c0,0-32.267-0.333-30.717,29.3c0,0,0.948,13.303,18.223,19.954l21.879,8.739c0,0,17.182,7.003,14.981,22.555
		c0,0-5.063,16.54-28.365,16.709h-41.668V96.2h45c0,0,40.114,0.004,34.891-35.515c0,0-0.973-16.252-27.182-25.136
		c0,0-31.096-9.702-27.652-21.542c0,0-0.057-15.507,24.443-15.507h52.118V96h10.35V-1.35h28.5v-9.75H-309.839z"/>
	<rect x="-406.524" y="86.157" fill="#808080" width="51.018" height="10.042"/>
	<rect x="-406.524" y="37.028" fill="#808080" width="51.018" height="10.042"/>
	<rect x="-406.524" y="-11.1" fill="#808080" width="57.301" height="10.042"/>
	
		<text transform="matrix(1 0 0 1 -432.8394 581.9575)" fill="#FEC82F" stroke="#FFE000" stroke-miterlimit="10" font-family="'Cochin-Bold'" font-size="150">Q</text>
	<g>
		<path fill="#D0D0D0" d="M-77.424,551.715c19.997,28.695,12.945,68.172-15.751,88.169c-28.698,19.999-68.174,12.946-88.171-15.749
			c-19.999-28.699-12.946-68.174,15.751-88.172C-136.899,515.965-97.423,523.017-77.424,551.715z M-80.57,553.907
			c-18.757-26.917-55.915-33.555-82.833-14.799c-26.917,18.758-33.555,55.918-14.798,82.834
			c18.758,26.917,55.917,33.555,82.833,14.797C-68.45,617.983-61.812,580.823-80.57,553.907z"/>
		<path fill="#808080" d="M-160.953,528.124l-26.274-22.762l12.604,32.216c1.994-1.774,4.099-3.463,6.343-5.027
			C-165.903,530.895-163.452,529.434-160.953,528.124z"/>
		<path fill="#FEC82F" stroke="#FFE000" stroke-miterlimit="10" d="M-111.458,646.201l56.822,49.43l-4.725-9.316l-24.684-48.671
			l-22.896-0.984c7.933-3.458,14.721-8.619,20.366-15.484c5.645-6.862,9.285-14.873,10.921-24.029
			c1.319-7.383,1.135-14.602-0.55-21.658c-1.687-7.057-4.525-13.48-8.518-19.273c-3.995-5.793-9.036-10.705-15.119-14.739
			c-6.087-4.032-12.82-6.708-20.203-8.027s-14.604-1.136-21.66,0.549c-7.058,1.687-13.461,4.555-19.212,8.605
			c-5.753,4.054-10.616,9.101-14.591,15.146c-3.975,6.047-6.622,12.76-7.941,20.143s-1.161,14.599,0.476,21.646
			c1.636,7.049,4.456,13.441,8.458,19.186c4.002,5.743,9.024,10.603,15.071,14.578c6.044,3.975,12.759,6.621,20.143,7.941
			L-111.458,646.201z M-137.584,631.642c-6.006-1.073-11.459-3.24-16.361-6.505c-4.902-3.261-8.967-7.239-12.191-11.93
			c-3.227-4.689-5.518-9.923-6.871-15.702c-1.356-5.778-1.488-11.718-0.397-17.823c1.09-6.102,3.271-11.629,6.543-16.582
			c3.27-4.951,7.236-9.094,11.896-12.428c4.656-3.332,9.852-5.68,15.582-7.044c5.729-1.362,11.595-1.509,17.601-0.437
			c6.003,1.072,11.481,3.246,16.435,6.518c4.951,3.271,9.061,7.282,12.327,12.029c3.266,4.75,5.575,10.013,6.931,15.791
			c1.354,5.779,1.486,11.719,0.396,17.822c-1.091,6.104-3.272,11.631-6.543,16.582c-3.272,4.953-7.257,9.065-11.956,12.34
			c-4.699,3.275-9.938,5.592-15.716,6.944C-125.69,632.574-131.581,632.714-137.584,631.642z"/>
		<path fill="#808080" d="M-69.87,556.686l23.047-26.602l-32.641,12.77c1.823,2.035,3.555,4.188,5.156,6.484
			C-72.647,551.721-71.182,554.18-69.87,556.686z"/>
		<path fill="#808080" d="M-189.307,619.551l-22.929,25.803l32.437-12.223c-1.864-2.07-3.634-4.264-5.269-6.609
			C-186.645,624.258-188.044,621.928-189.307,619.551z"/>
	</g>
	<path fill="#6E6E6D" d="M1430.223,564.617c0,6.627-5.373,12-12,12H760.556c-6.628,0-12-5.373-12-12v-90.062c0-6.627,5.372-12,12-12
		h657.667c6.627,0,12,5.373,12,12V564.617z"/>
	<path fill="#6E6E6D" d="M687.667,1042.917c0,6.627-5.373,12-12,12H18c-6.627,0-12-5.373-12-12V839.585c0-6.629,5.373-12,12-12
		h657.667c6.627,0,12,5.371,12,12V1042.917z"/>
	<g>
		<path fill="#FCE1DA" d="M484.779,942.214c0,2.674-0.518,5.15-1.539,7.363c-1.037,2.248-2.434,4.193-4.15,5.781
			c-1.724,1.594-3.813,2.867-6.211,3.783c-2.396,0.914-4.986,1.381-7.7,1.389c-3.571-0.172-6.22-1.176-7.875-2.982
			c-1.746-1.904-2.681-4.152-2.854-6.871v-43.246h-13.92l0.002,46.289c0.227,6.135,2.363,11.18,6.35,14.992
			c3.979,3.807,9.356,5.736,15.983,5.736c6.68,0,12.486-1.744,17.259-5.184c2.106-1.52,3.981-3.258,5.616-5.205l0.544,9.789h12.416
			v-66.418h-13.92V942.214z"/>
		<path fill="#FCE1DA" d="M562.241,912.578c-5.352-4.41-11.736-6.646-18.977-6.646c-4.672,0-9.14,0.91-13.279,2.709
			c-4.109,1.783-7.76,4.254-10.85,7.346c-3.093,3.092-5.565,6.771-7.352,10.938c-1.795,4.188-2.705,8.676-2.705,13.342
			c0,4.672,0.912,9.139,2.71,13.277c1.788,4.121,4.266,7.752,7.363,10.793c3.088,3.035,6.762,5.479,10.92,7.26
			c4.187,1.795,8.726,2.705,13.491,2.705c4.529,0,8.96-0.82,13.168-2.439c4.205-1.617,7.931-3.867,11.075-6.686l2.285-2.049
			l-10.325-9.822l-1.953,1.855c-1.72,1.631-3.874,2.945-6.405,3.906c-2.562,0.971-5.301,1.465-8.144,1.465
			c-4.269,0-7.95-1.07-11.255-3.275c-2.483-1.654-4.445-3.66-5.943-6.084c2.872-1.166,5.91-2.4,9.116-3.705
			c4.295-1.748,8.618-3.498,12.964-5.246s8.593-3.447,12.74-5.096c4.077-1.623,7.876-3.107,11.29-4.412l2.622-1.002l-0.978-2.633
			C571.354,922.433,567.458,916.882,562.241,912.578z M522.999,939.964c0-2.689,0.525-5.262,1.563-7.641
			c1.054-2.412,2.52-4.566,4.356-6.404c1.844-1.842,4.031-3.338,6.502-4.441c2.421-1.08,5.061-1.629,7.845-1.629
			c3.283,0,6.176,0.814,8.84,2.49c1.792,1.127,3.29,2.512,4.528,4.191c-2.051,0.793-4.164,1.621-6.314,2.475
			c-3.354,1.332-6.849,2.75-10.389,4.217c-3.464,1.434-6.986,2.867-10.468,4.262c-2.227,0.891-4.389,1.768-6.463,2.621
			C522.999,940.058,522.999,940.011,522.999,939.964z"/>
		<path fill="#FCE1DA" d="M612.704,938.304c-2.259-1.396-4.728-2.59-7.34-3.551c-2.359-0.865-4.573-1.791-6.584-2.75
			c-1.812-0.859-3.324-1.871-4.501-3.006c-0.528-0.51-1.231-1.418-1.231-3.434c0-0.973,0.179-1.734,0.553-2.334
			c0.44-0.715,0.961-1.271,1.587-1.701c0.687-0.469,1.428-0.803,2.266-1.021c0.911-0.238,1.755-0.357,2.51-0.357
			c2.021,0,4.061,0.41,6.061,1.217c2.504,1.016,3.282,1.82,3.501,2.119l2.23,3.055l8.324-10.822l-1.763-1.76
			c-2.591-2.586-5.671-4.525-9.156-5.766c-3.394-1.203-6.589-1.813-9.497-1.813c-2.25,0-4.602,0.338-6.986,1.004
			c-2.507,0.699-4.787,1.855-6.775,3.436c-1.997,1.584-3.658,3.596-4.936,5.979c-1.318,2.455-1.987,5.455-1.987,8.916
			c0,3.859,0.867,7.115,2.575,9.672c1.62,2.432,3.679,4.43,6.116,5.938c2.276,1.41,4.794,2.588,7.479,3.5
			c2.381,0.811,4.601,1.703,6.594,2.65c1.813,0.863,3.328,1.875,4.502,3.006c0.529,0.512,1.233,1.424,1.233,3.436
			c0,1.182-0.224,2.164-0.663,2.92c-0.496,0.848-1.133,1.535-1.949,2.104c-0.878,0.613-1.807,1.039-2.844,1.309
			c-1.104,0.287-2.149,0.434-3.109,0.434c-1.149,0-2.366-0.17-3.622-0.506c-1.365-0.363-2.651-0.799-3.827-1.297
			c-1.165-0.492-2.204-1.01-3.093-1.545c-0.724-0.434-0.967-0.682-0.979-0.682c0,0-0.001,0.002,0,0.004l-0.821-1.375h-1.608
			c-1.537,0-2.398,1.107-2.909,1.764c-0.336,0.432-0.741,0.932-1.215,1.502c-0.495,0.592-1.034,1.232-1.631,1.926
			c-0.534,0.625-1.001,1.139-1.35,1.488l-1.844,1.844l1.683,1.99c2.525,2.988,5.851,5.193,9.882,6.555
			c3.825,1.295,7.639,1.951,11.334,1.951c7.056,0,12.631-2.025,16.569-6.021c3.926-3.984,5.916-8.918,5.916-14.664
			c0-3.764-0.873-6.951-2.596-9.475C617.18,941.769,615.129,939.806,612.704,938.304z"/>
		<polygon fill="#FCE1DA" points="650.195,908.031 650.195,881.181 636.275,881.181 636.275,908.031 624.275,908.031 
			624.275,921.199 636.275,921.199 636.275,973.099 650.195,973.099 650.195,921.199 668.045,921.199 668.045,908.031 		"/>
		<path fill="#FCE1DA" d="M125.452,907.431l-0.742,1.699c-2.396,5.49-4.585,10.424-6.509,14.664
			c-1.985,4.379-3.783,8.432-5.345,12.045c-1.589,3.674-3.089,7.283-4.458,10.73c-0.484,1.221-0.961,2.459-1.429,3.709
			c-1.667-3.92-3.532-8.277-5.633-13.16c-3.249-7.543-7.418-16.969-12.394-28.018l-0.752-1.67h-13.58l7.142,15.746
			c-1.779,4.023-3.331,7.668-4.62,10.846l-3.748,9.221l-2.765,6.773c-0.417-1.129-0.84-2.248-1.268-3.354
			c-1.315-3.385-2.733-6.955-4.216-10.613c-1.494-3.684-3.19-7.762-5.043-12.121c-1.885-4.428-4.033-9.406-6.385-14.797
			l-0.742-1.701H38.554l1.699,3.953c4.6,10.705,9.176,21.305,13.729,31.807c4.628,10.682,9.298,21.385,13.881,31.814l2.646,6.021
			l18.068-42.762c2.357,5.184,4.579,10.332,6.63,15.369c2.859,7.023,6.035,14.238,9.438,21.441l2.638,5.584l32.643-73.229H125.452z"
			/>
		<path fill="#FCE1DA" d="M177.79,942.22c4.347-1.748,8.592-3.447,12.74-5.096c4.066-1.617,7.864-3.102,11.291-4.412l2.622-1.002
			l-0.977-2.633c-2.467-6.645-6.363-12.195-11.58-16.5c-5.352-4.41-11.737-6.646-18.978-6.646c-4.671,0-9.139,0.91-13.279,2.709
			c-4.11,1.783-7.761,4.256-10.851,7.346c-3.092,3.092-5.565,6.771-7.351,10.938c-1.794,4.188-2.704,8.676-2.704,13.342
			c0,4.672,0.912,9.141,2.709,13.277c1.788,4.121,4.266,7.752,7.363,10.793c3.088,3.035,6.762,5.479,10.92,7.26
			c4.186,1.795,8.725,2.705,13.492,2.705c4.53,0,8.96-0.82,13.167-2.439c4.204-1.617,7.93-3.867,11.075-6.686l2.286-2.049
			l-10.326-9.822l-1.954,1.855c-1.719,1.631-3.874,2.945-6.404,3.906c-2.562,0.971-5.302,1.465-8.144,1.465
			c-4.268,0-7.949-1.07-11.253-3.275c-2.484-1.654-4.446-3.66-5.944-6.084c2.871-1.166,5.91-2.4,9.115-3.705
			C169.122,945.718,173.444,943.968,177.79,942.22z M154.206,932.324c1.053-2.412,2.519-4.566,4.357-6.404
			c1.842-1.842,4.03-3.338,6.501-4.441c2.421-1.08,5.061-1.629,7.845-1.629c3.285,0,6.176,0.814,8.84,2.49
			c1.792,1.127,3.29,2.512,4.529,4.191c-2.048,0.791-4.161,1.619-6.315,2.475c-3.329,1.322-6.824,2.74-10.389,4.217
			c-3.491,1.445-7.013,2.879-10.468,4.262c-2.218,0.887-4.38,1.764-6.462,2.621c0-0.047,0-0.094,0-0.141
			C152.643,937.273,153.169,934.703,154.206,932.324z"/>
		<path fill="#FCE1DA" d="M252.735,953.277c-3.554-4.795-6.934-9.389-10.067-13.678c1.405-2.07,2.798-4.055,4.155-5.914
			c1.745-2.395,3.466-4.738,5.164-7.035c1.712-2.318,3.422-4.717,5.081-7.129c1.648-2.398,3.372-4.895,5.17-7.494l3.077-4.447
			H249.11l-0.844,1.236c-2.75,4.027-5.449,7.801-8.022,11.217c-1.891,2.508-3.858,5.221-5.873,8.1
			c-2.078-2.893-4.071-5.605-5.951-8.1c-2.557-3.391-5.25-7.205-8.004-11.34l-0.841-1.262h-17.292l3.284,4.504
			c3.49,4.787,7.078,9.664,10.664,14.494c3.177,4.281,6.309,8.588,9.328,12.826c-3.129,4.615-6.371,9.26-9.654,13.83
			c-3.697,5.146-7.347,10.395-10.85,15.596l-2.974,4.418h16.114l0.845-1.225c2.847-4.125,5.658-8.09,8.356-11.789
			c1.947-2.666,3.999-5.512,6.122-8.49c2.159,2.971,4.349,5.867,6.536,8.646c2.927,3.723,5.91,7.658,8.866,11.697l0.85,1.16h17.271
			l-3.169-4.473C260.485,963.849,256.739,958.685,252.735,953.277z"/>
	</g>
	<g>
	</g>
	<g>
	</g>
	<text transform="matrix(1 0 0 1 431.7642 969.2651)" fill="#FFFFFF" font-family="'JosefinSans'" font-size="150">uest</text>
	<text transform="matrix(1 0 0 1 38.6074 969.2651)" fill="#FFFFFF" font-family="'JosefinSans'" font-size="150">wex</text>
	<g>
		<text transform="matrix(1 0 0 1 38.6074 969.2651)" fill="#FFFFFF" font-family="'JosefinSans'" font-size="150">wex</text>
	</g>
	<path fill="#D0D0D0" d="M407.387,894.429c19.997,28.695,12.945,68.17-15.751,88.168c-28.698,19.998-68.174,12.947-88.171-15.75
		c-19.999-28.697-12.946-68.172,15.751-88.172C347.913,858.679,387.388,865.73,407.387,894.429z M404.242,896.621
		c-18.757-26.918-55.915-33.557-82.833-14.799c-26.917,18.758-33.555,55.916-14.798,82.834
		c18.758,26.916,55.917,33.555,82.833,14.797C416.362,960.695,423,923.537,404.242,896.621z"/>
	<path fill="#FEC82F" stroke="#FFE000" stroke-miterlimit="10" d="M290.76,838.412l38.097,33.006l-3.682,1.93
		c-2.544,1.334-4.841,2.721-7.023,4.242c-2.065,1.439-4.054,3.016-6.079,4.818l-3.041,2.709L290.76,838.412z"/>
	<path fill="#808080" d="M323.859,870.837l-26.274-22.764l12.604,32.217c1.994-1.775,4.099-3.463,6.343-5.027
		C318.908,873.607,321.359,872.148,323.859,870.837z"/>
	<path fill="#FEC82F" stroke="#FFE000" stroke-miterlimit="10" d="M373.354,988.914l56.822,49.43l-4.725-9.316l-24.684-48.672
		l-22.896-0.982c7.933-3.459,14.721-8.619,20.366-15.484c5.645-6.863,9.285-14.875,10.921-24.029
		c1.319-7.383,1.135-14.602-0.55-21.66c-1.687-7.055-4.525-13.479-8.518-19.273c-3.995-5.791-9.036-10.703-15.119-14.738
		c-6.087-4.031-12.82-6.709-20.203-8.027s-14.604-1.135-21.66,0.549c-7.058,1.688-13.461,4.555-19.212,8.605
		c-5.753,4.053-10.616,9.102-14.591,15.145c-3.975,6.047-6.622,12.76-7.941,20.143c-1.319,7.385-1.161,14.6,0.476,21.646
		c1.636,7.049,4.456,13.443,8.458,19.188c4.002,5.742,9.024,10.602,15.071,14.576c6.044,3.975,12.759,6.623,20.143,7.941
		L373.354,988.914z M347.227,974.355c-6.006-1.072-11.459-3.24-16.361-6.504c-4.902-3.262-8.967-7.24-12.191-11.93
		c-3.227-4.691-5.518-9.924-6.871-15.703c-1.356-5.777-1.488-11.717-0.397-17.822c1.09-6.104,3.271-11.629,6.543-16.584
		c3.27-4.951,7.236-9.092,11.896-12.426c4.656-3.332,9.852-5.68,15.582-7.045c5.729-1.361,11.595-1.51,17.601-0.436
		c6.003,1.072,11.481,3.246,16.435,6.516c4.951,3.273,9.061,7.283,12.327,12.031c3.266,4.75,5.575,10.012,6.931,15.789
		c1.354,5.781,1.486,11.721,0.396,17.822c-1.091,6.105-3.272,11.633-6.543,16.584c-3.272,4.953-7.257,9.064-11.956,12.34
		c-4.699,3.273-9.938,5.59-15.716,6.943C359.122,975.287,353.231,975.427,347.227,974.355z"/>
	<path fill="#FEC82F" stroke="#FFE000" stroke-miterlimit="10" d="M412.431,900.714c-1.315-2.512-2.746-4.881-4.252-7.041
		c-1.473-2.113-3.089-4.146-4.942-6.215l-2.726-3.043l47.141-18.441L414.361,904.4L412.431,900.714z"/>
	<path fill="#808080" d="M414.942,899.4l23.047-26.602l-32.641,12.77c1.823,2.035,3.555,4.186,5.156,6.484
		C412.165,894.435,413.629,896.894,414.942,899.4z"/>
	<path fill="#FEC82F" stroke="#FFE000" stroke-miterlimit="10" d="M296.093,957.335l1.914,3.6c1.286,2.416,2.615,4.602,4.063,6.682
		c1.482,2.125,3.182,4.256,5.05,6.332l2.776,3.086l-47.068,17.736L296.093,957.335z"/>
	<path fill="#808080" d="M295.504,962.265l-22.929,25.803l32.437-12.223c-1.864-2.07-3.634-4.264-5.269-6.609
		C298.167,966.972,296.768,964.64,295.504,962.265z"/>
	<g>
		<text transform="matrix(1 0 0 1 431.7642 969.2651)" fill="#FFFFFF" font-family="'JosefinSans'" font-size="150">uest</text>
	</g>
	<g>
	</g>
	<g>
		<g>
			<text transform="matrix(1 0 0 1 -1023.9995 695.4722)" font-family="'JosefinSans'" font-size="150">wex</text>
		</g>
		<g>
			<text transform="matrix(1 0 0 1 -687.2183 695.4722)" font-family="'JosefinSans'" font-size="150">uest</text>
		</g>
		<polygon points="-749.021,564.547 -737.589,531.431 -726.157,564.547 		"/>
		<polygon points="-749.021,711.6 -737.589,820.431 -726.157,711.6 		"/>
		<polygon points="-677.336,606.94 -644.219,618.372 -677.336,629.803 		"/>
		<polygon points="-804.839,606.94 -837.957,618.372 -804.839,629.803 		"/>
	</g>
	<text transform="matrix(1 0 0 1 38.6074 738.8921)" fill="#7DB159" font-family="'JosefinSans'" font-size="150">wex</text>
	<text transform="matrix(1 0 0 1 529.5024 663.8921)" fill="#7DB159" font-family="'JosefinSans'" font-size="150">uest</text>
	<path fill="#D0D0D0" d="M1262.942,66.631c19.997,28.695,12.945,68.172-15.751,88.168c-28.698,20-68.174,12.948-88.171-15.749
		c-19.998-28.699-12.946-68.174,15.752-88.172C1203.467,30.881,1242.943,37.933,1262.942,66.631z M1259.796,68.823
		c-18.757-26.917-55.915-33.555-82.833-14.799c-26.916,18.758-33.555,55.918-14.797,82.834
		c18.758,26.917,55.916,33.556,82.832,14.797C1271.917,132.899,1278.554,95.739,1259.796,68.823z"/>
	<path fill="#808080" d="M1179.414,43.04l-26.274-22.762l12.604,32.216c1.994-1.774,4.1-3.463,6.344-5.027
		C1174.463,45.811,1176.915,44.35,1179.414,43.04z"/>
	<path fill="#FEC82F" stroke="#FFE000" stroke-miterlimit="10" d="M1228.909,161.116l56.822,49.43l-4.725-9.316l-24.684-48.67
		l-22.896-0.984c7.933-3.459,14.721-8.619,20.366-15.485c5.645-6.862,9.285-14.873,10.921-24.029
		c1.319-7.383,1.135-14.602-0.55-21.658c-1.687-7.057-4.525-13.48-8.518-19.273c-3.995-5.793-9.036-10.705-15.119-14.739
		c-6.087-4.032-12.82-6.708-20.203-8.027s-14.604-1.136-21.66,0.549c-7.058,1.687-13.461,4.555-19.212,8.605
		c-5.753,4.054-10.616,9.101-14.591,15.146c-3.976,6.047-6.623,12.76-7.941,20.143s-1.16,14.599,0.476,21.646
		c1.636,7.049,4.456,13.441,8.458,19.186c4.002,5.743,9.024,10.602,15.071,14.579c6.044,3.975,12.759,6.621,20.143,7.941
		L1228.909,161.116z M1202.782,146.558c-6.006-1.072-11.459-3.24-16.361-6.504c-4.902-3.261-8.967-7.239-12.191-11.93
		c-3.227-4.689-5.518-9.923-6.871-15.702c-1.355-5.778-1.487-11.718-0.396-17.823c1.09-6.102,3.271-11.629,6.543-16.582
		c3.271-4.951,7.236-9.094,11.896-12.428c4.656-3.332,9.852-5.68,15.582-7.044c5.729-1.362,11.595-1.509,17.601-0.437
		c6.003,1.072,11.481,3.246,16.435,6.518c4.951,3.271,9.061,7.282,12.327,12.029c3.266,4.75,5.575,10.013,6.931,15.791
		c1.354,5.779,1.486,11.719,0.396,17.822c-1.091,6.104-3.272,11.631-6.543,16.582c-3.272,4.953-7.257,9.065-11.956,12.34
		c-4.699,3.276-9.938,5.592-15.716,6.944C1214.676,147.489,1208.786,147.63,1202.782,146.558z"/>
	<path fill="#808080" d="M1270.497,71.602L1293.543,45l-32.641,12.77c1.823,2.035,3.555,4.188,5.156,6.484
		C1267.719,66.637,1269.184,69.096,1270.497,71.602z"/>
	<path fill="#808080" d="M1151.059,134.467l-22.929,25.803l32.437-12.223c-1.863-2.07-3.633-4.264-5.268-6.609
		C1153.721,139.174,1152.323,136.844,1151.059,134.467z"/>
	<path fill="#7DB159" d="M1349.418,142.218h-6.899l-0.9-16.2c-2.1,5.002-5.302,9.052-9.6,12.15
		c-4.301,3.101-9.502,4.649-15.601,4.649c-5.901,0-10.574-1.649-14.024-4.95c-3.45-3.3-5.276-7.65-5.476-13.05v-43.35h8.25v40.5
		c0.199,3.401,1.399,6.3,3.601,8.7c2.198,2.4,5.498,3.701,9.899,3.9c3.099,0,6.023-0.525,8.775-1.575
		c2.749-1.05,5.123-2.499,7.125-4.35c1.999-1.849,3.6-4.073,4.8-6.675c1.2-2.599,1.8-5.449,1.8-8.55v-31.95h8.25V142.218z"/>
	<path fill="#7DB159" d="M1419.468,134.268c-2.901,2.602-6.3,4.65-10.2,6.15s-7.949,2.25-12.15,2.25
		c-4.4,0-8.525-0.825-12.375-2.475s-7.199-3.875-10.049-6.675c-2.851-2.798-5.101-6.098-6.75-9.9
		c-1.65-3.799-2.476-7.849-2.476-12.15c0-4.298,0.825-8.374,2.476-12.225c1.649-3.848,3.899-7.2,6.75-10.05
		c2.85-2.85,6.173-5.1,9.975-6.75c3.799-1.65,7.85-2.475,12.15-2.475c6.6,0,12.322,2.001,17.174,6
		c4.85,4.001,8.424,9.101,10.726,15.3c-3.401,1.301-7.177,2.775-11.325,4.425c-4.15,1.65-8.4,3.352-12.75,5.1
		c-4.35,1.75-8.676,3.501-12.975,5.25c-4.301,1.75-8.302,3.375-12,4.875c1.8,4.102,4.574,7.401,8.324,9.9
		c3.75,2.5,8.025,3.75,12.826,3.75c3.199,0,6.248-0.548,9.149-1.65c2.899-1.1,5.349-2.6,7.351-4.5L1419.468,134.268z
		 M1414.368,99.168c-1.701-3.398-4.102-6.075-7.199-8.025c-3.102-1.95-6.551-2.925-10.35-2.925c-3.202,0-6.202,0.626-9,1.875
		c-2.801,1.251-5.25,2.925-7.351,5.025s-3.75,4.526-4.95,7.275c-1.199,2.752-1.8,5.677-1.8,8.775c0,1.601,0.149,3,0.45,4.2
		c3.098-1.298,6.398-2.648,9.9-4.05c3.498-1.399,6.998-2.824,10.5-4.275c3.498-1.449,6.949-2.85,10.35-4.2
		C1408.317,101.493,1411.467,100.27,1414.368,99.168z"/>
	<path fill="#7DB159" d="M1472.868,87.168l-4.5,5.85c-0.803-1.099-2.377-2.123-4.726-3.075c-2.351-0.949-4.726-1.425-7.125-1.425
		c-1.001,0-2.077,0.15-3.226,0.45c-1.15,0.3-2.2,0.776-3.149,1.425c-0.952,0.652-1.751,1.5-2.399,2.55
		c-0.652,1.05-0.976,2.325-0.976,3.825c0,2.302,0.698,4.125,2.101,5.475c1.398,1.35,3.149,2.527,5.25,3.525
		c2.1,1.001,4.373,1.95,6.824,2.85c2.449,0.9,4.725,2.001,6.825,3.3c2.101,1.301,3.849,2.977,5.25,5.025
		c1.399,2.051,2.101,4.676,2.101,7.875c0,5.001-1.702,9.225-5.101,12.675c-3.401,3.45-8.25,5.175-14.55,5.175
		c-3.4,0-6.877-0.601-10.426-1.8c-3.551-1.2-6.426-3.099-8.625-5.7c0.398-0.398,0.9-0.949,1.5-1.65
		c0.601-0.698,1.148-1.35,1.65-1.95c0.5-0.6,0.924-1.125,1.275-1.575c0.35-0.45,0.574-0.675,0.675-0.675
		c0.3,0.501,0.949,1.05,1.95,1.65c0.998,0.6,2.148,1.177,3.449,1.725c1.299,0.551,2.701,1.026,4.201,1.425
		c1.5,0.401,2.947,0.6,4.35,0.6c1.199,0,2.475-0.173,3.824-0.525c1.351-0.349,2.6-0.923,3.75-1.725c1.148-0.799,2.074-1.8,2.775-3
		c0.699-1.2,1.051-2.648,1.051-4.35c0-2.299-0.701-4.125-2.101-5.475c-1.401-1.35-3.149-2.524-5.25-3.525
		c-2.101-0.999-4.401-1.924-6.899-2.775c-2.502-0.849-4.801-1.924-6.9-3.225c-2.1-1.298-3.852-3-5.25-5.1
		c-1.402-2.1-2.1-4.8-2.1-8.1c0-3,0.548-5.524,1.649-7.575c1.099-2.048,2.499-3.75,4.2-5.1c1.699-1.35,3.623-2.325,5.775-2.925
		c2.148-0.6,4.223-0.9,6.225-0.9c2.6,0,5.449,0.551,8.55,1.65C1467.866,83.169,1470.565,84.869,1472.868,87.168z"/>
	<path fill="#7DB159" d="M1498.665,55.218h8.25v26.85h17.851v7.5h-17.851v51.9h-8.25v-51.9h-12v-7.5h12V55.218z"/>
	<path fill="#7DB159" d="M938.413,94.368l-5.851-12.9h7.351c4.998,11.1,9.123,20.426,12.375,27.975
		c3.248,7.551,6.074,14.175,8.475,19.875c1.199-3.6,2.475-7.099,3.824-10.5c1.351-3.398,2.824-6.949,4.426-10.65
		c1.598-3.699,3.375-7.699,5.324-12c1.951-4.299,4.125-9.199,6.525-14.7h8.25l-28.35,63.6c-3.4-7.2-6.525-14.299-9.375-21.3
		c-2.85-6.998-5.977-14.1-9.375-21.3l-18,42.6c-4.701-10.699-9.326-21.3-13.875-31.8c-4.552-10.5-9.127-21.098-13.725-31.8h8.25
		c2.399,5.501,4.523,10.425,6.375,14.775c1.849,4.35,3.524,8.376,5.024,12.075c1.5,3.701,2.899,7.226,4.2,10.575
		c1.299,3.352,2.55,6.825,3.75,10.425c0.799-2.1,1.65-4.25,2.55-6.45c0.899-2.198,1.898-4.65,3-7.35
		c1.099-2.7,2.349-5.775,3.75-9.225C934.711,102.843,936.411,98.868,938.413,94.368z"/>
	<path fill="#7DB159" d="M1049.113,134.268c-2.901,2.602-6.3,4.65-10.2,6.15s-7.949,2.25-12.15,2.25
		c-4.4,0-8.525-0.825-12.375-2.475s-7.199-3.875-10.049-6.675c-2.851-2.798-5.101-6.098-6.75-9.9
		c-1.65-3.799-2.476-7.849-2.476-12.15c0-4.298,0.825-8.374,2.476-12.225c1.649-3.848,3.899-7.2,6.75-10.05
		c2.85-2.85,6.173-5.1,9.975-6.75c3.799-1.65,7.85-2.475,12.15-2.475c6.6,0,12.322,2.001,17.174,6
		c4.85,4.001,8.424,9.101,10.726,15.3c-3.401,1.301-7.177,2.775-11.325,4.425c-4.15,1.65-8.4,3.352-12.75,5.1
		c-4.35,1.75-8.676,3.501-12.975,5.25c-4.301,1.75-8.302,3.375-12,4.875c1.8,4.102,4.574,7.401,8.324,9.9
		c3.75,2.5,8.025,3.75,12.826,3.75c3.199,0,6.248-0.548,9.149-1.65c2.899-1.1,5.349-2.6,7.351-4.5L1049.113,134.268z
		 M1044.012,99.168c-1.701-3.398-4.102-6.075-7.199-8.025c-3.102-1.95-6.551-2.925-10.35-2.925c-3.202,0-6.202,0.626-9,1.875
		c-2.801,1.251-5.25,2.925-7.351,5.025s-3.75,4.526-4.95,7.275c-1.199,2.752-1.8,5.677-1.8,8.775c0,1.601,0.149,3,0.45,4.2
		c3.098-1.298,6.398-2.648,9.9-4.05c3.498-1.399,6.998-2.824,10.5-4.275c3.498-1.449,6.949-2.85,10.35-4.2
		C1037.961,101.493,1041.112,100.27,1044.012,99.168z"/>
	<path fill="#7DB159" d="M1082.561,110.418c-3.4-4.8-6.899-9.624-10.5-14.475c-3.6-4.849-7.15-9.675-10.649-14.475h10.2
		c2.799,4.2,5.498,8.025,8.1,11.475c2.6,3.45,5.349,7.226,8.25,11.325c2.799-4.099,5.498-7.875,8.1-11.325
		c2.6-3.45,5.3-7.224,8.101-11.325h9.3c-1.8,2.602-3.525,5.1-5.175,7.5s-3.325,4.751-5.024,7.05c-1.702,2.301-3.428,4.65-5.176,7.05
		c-1.75,2.4-3.525,4.95-5.324,7.65c3.498,4.8,7.248,9.9,11.25,15.3c3.998,5.4,7.699,10.5,11.1,15.3h-10.35
		c-3-4.099-5.977-8.025-8.926-11.775c-2.951-3.75-5.875-7.673-8.775-11.775c-2.9,4.102-5.699,8.001-8.399,11.7
		c-2.7,3.701-5.501,7.65-8.399,11.85h-9.301c3.5-5.198,7.1-10.374,10.801-15.525C1075.459,120.793,1079.06,115.619,1082.561,110.418
		z"/>
</g>
<g id="main_logo">
	<g id="logo">
		<path fill="#D0D0D0" d="M389.411,66.631c19.997,28.695,12.945,68.172-15.751,88.168c-28.698,20-68.174,12.948-88.171-15.749
			c-19.999-28.699-12.946-68.174,15.751-88.172C329.936,30.881,369.412,37.933,389.411,66.631z M386.265,68.823
			c-18.757-26.917-55.915-33.555-82.833-14.799c-26.917,18.758-33.555,55.918-14.798,82.834
			c18.758,26.917,55.917,33.556,82.833,14.797C398.385,132.899,405.023,95.739,386.265,68.823z"/>
		<path fill="#808080" d="M305.882,43.04l-26.274-22.762l12.604,32.216c1.994-1.774,4.099-3.463,6.343-5.027
			C300.932,45.811,303.383,44.35,305.882,43.04z"/>
		<g>
			<path fill="#FEC82F" d="M355.377,161.116l56.822,49.43l-4.725-9.316l-24.684-48.67l-22.896-0.984
				c7.933-3.459,14.721-8.619,20.366-15.485c5.645-6.862,9.285-14.873,10.921-24.029c1.319-7.383,1.135-14.602-0.55-21.658
				c-1.687-7.057-4.525-13.48-8.518-19.273c-3.995-5.793-9.036-10.705-15.119-14.739c-6.087-4.032-12.82-6.708-20.203-8.027
				s-14.604-1.136-21.66,0.549c-7.058,1.687-13.461,4.555-19.212,8.605c-5.753,4.054-10.616,9.101-14.591,15.146
				c-3.975,6.047-6.622,12.76-7.941,20.143s-1.161,14.599,0.476,21.646c1.636,7.049,4.456,13.441,8.458,19.186
				c4.002,5.743,9.024,10.602,15.071,14.579c6.044,3.975,12.759,6.621,20.143,7.941L355.377,161.116z M329.25,146.558
				c-6.006-1.072-11.459-3.24-16.361-6.504c-4.902-3.261-8.967-7.239-12.191-11.93c-3.227-4.689-5.518-9.923-6.871-15.702
				c-1.356-5.778-1.488-11.718-0.397-17.823c1.09-6.102,3.271-11.629,6.543-16.582c3.27-4.951,7.236-9.094,11.896-12.428
				c4.656-3.332,9.852-5.68,15.582-7.044c5.729-1.362,11.595-1.509,17.601-0.437c6.003,1.072,11.481,3.246,16.435,6.518
				c4.951,3.271,9.061,7.282,12.327,12.029c3.266,4.75,5.575,10.013,6.931,15.791c1.354,5.779,1.486,11.719,0.396,17.822
				c-1.091,6.104-3.272,11.631-6.543,16.582c-3.272,4.953-7.257,9.065-11.956,12.34c-4.699,3.276-9.938,5.592-15.716,6.944
				C341.145,147.489,335.254,147.63,329.25,146.558z"/>
			<path fill="#FFE000" d="M413.804,212.605l-58.65-51.021l-27.705-4.935c-7.418-1.327-14.258-4.023-20.33-8.016
				c-6.07-3.992-11.187-8.941-15.207-14.711c-4.021-5.771-6.893-12.284-8.535-19.358c-1.644-7.081-1.806-14.431-0.481-21.848
				c1.324-7.414,4.021-14.253,8.015-20.329c3.99-6.067,8.943-11.208,14.721-15.28c5.776-4.068,12.297-6.99,19.384-8.683
				c7.091-1.693,14.451-1.88,21.864-0.555c7.415,1.325,14.275,4.051,20.392,8.103c6.111,4.053,11.244,9.057,15.254,14.873
				c4.009,5.816,6.899,12.357,8.593,19.441c1.693,7.094,1.881,14.45,0.556,21.862c-1.644,9.2-5.354,17.361-11.027,24.259
				c-5.214,6.341-11.483,11.298-18.658,14.756l21.115,0.908l0.133,0.261L413.804,212.605z M337.163,47.994
				c-4.003,0-8.012,0.472-11.913,1.404c-6.962,1.664-13.369,4.533-19.04,8.528c-5.676,3.999-10.542,9.05-14.461,15.012
				c-3.919,5.962-6.566,12.676-7.867,19.956c-1.301,7.282-1.143,14.498,0.47,21.445c1.613,6.95,4.433,13.347,8.381,19.013
				c3.947,5.664,8.972,10.524,14.936,14.446c5.957,3.918,12.671,6.564,19.956,7.867l27.977,4.983l0.104,0.09l54.89,47.749
				l-28.117-55.441l-24.766-1.064l1.983-0.865c7.823-3.411,14.613-8.574,20.181-15.344c5.563-6.764,9.201-14.771,10.814-23.8
				c1.301-7.277,1.117-14.495-0.544-21.454c-1.664-6.963-4.505-13.391-8.443-19.106c-3.938-5.709-8.979-10.624-14.983-14.606
				c-6.001-3.976-12.735-6.651-20.015-7.952C343.508,48.284,340.298,47.994,337.163,47.994z M337.143,147.769
				c-2.626,0-5.311-0.242-7.98-0.719c-6.045-1.079-11.614-3.293-16.551-6.581c-4.932-3.28-9.079-7.339-12.326-12.063
				c-3.248-4.721-5.585-10.061-6.945-15.872c-1.365-5.815-1.5-11.88-0.402-18.025c1.097-6.142,3.324-11.784,6.619-16.77
				c3.288-4.979,7.333-9.204,12.022-12.559c4.686-3.354,9.988-5.75,15.757-7.124c5.771-1.374,11.762-1.521,17.804-0.442
				c6.04,1.079,11.633,3.297,16.622,6.593c4.981,3.291,9.175,7.383,12.464,12.163c3.285,4.778,5.642,10.148,7.005,15.96
				c1.363,5.82,1.499,11.884,0.402,18.024c-1.098,6.141-3.324,11.783-6.618,16.77c-3.292,4.983-7.358,9.18-12.087,12.475
				c-4.733,3.299-10.079,5.662-15.888,7.021C343.792,147.382,340.462,147.769,337.143,147.769z M337.203,57.9
				c-3.238,0-6.48,0.381-9.635,1.131c-5.643,1.343-10.827,3.687-15.407,6.964c-4.589,3.283-8.549,7.42-11.77,12.296
				c-3.219,4.872-5.396,10.388-6.468,16.395c-1.074,6.01-0.942,11.938,0.392,17.621c1.332,5.689,3.618,10.915,6.796,15.533
				c3.174,4.618,7.23,8.587,12.056,11.796c4.822,3.211,10.263,5.374,16.172,6.429c5.912,1.055,11.787,0.915,17.474-0.418
				c5.686-1.33,10.915-3.641,15.544-6.867c4.625-3.223,8.604-7.329,11.825-12.205c3.219-4.873,5.395-10.389,6.468-16.395
				c1.072-6.005,0.94-11.934-0.392-17.621c-1.334-5.69-3.641-10.946-6.855-15.622c-3.216-4.673-7.317-8.675-12.19-11.896
				c-4.876-3.22-10.342-5.388-16.247-6.442C342.363,58.136,339.751,57.9,337.203,57.9z"/>
		</g>
		<path fill="#808080" d="M396.965,71.602L420.012,45l-32.641,12.77c1.823,2.035,3.555,4.188,5.156,6.484
			C394.188,66.637,395.653,69.096,396.965,71.602z"/>
		<path fill="#808080" d="M277.528,134.467l-22.929,25.803l32.437-12.223c-1.864-2.07-3.634-4.264-5.269-6.609
			C280.19,139.174,278.791,136.844,277.528,134.467z"/>
	</g>
	<g id="typo">
		<path fill="#FFFFFF" d="M475.887,142.218h-6.899l-0.9-16.2c-2.1,5.002-5.302,9.052-9.6,12.15
			c-4.301,3.101-9.502,4.649-15.601,4.649c-5.901,0-10.574-1.649-14.024-4.95c-3.45-3.3-5.276-7.65-5.476-13.05v-43.35h8.25v40.5
			c0.199,3.401,1.399,6.3,3.601,8.7c2.198,2.4,5.498,3.701,9.899,3.9c3.099,0,6.023-0.525,8.775-1.575
			c2.749-1.05,5.123-2.499,7.125-4.35c1.999-1.849,3.6-4.073,4.8-6.675c1.2-2.599,1.8-5.449,1.8-8.55v-31.95h8.25V142.218z"/>
		<path fill="#FFFFFF" d="M545.937,134.268c-2.901,2.602-6.3,4.65-10.2,6.15s-7.949,2.25-12.15,2.25
			c-4.4,0-8.525-0.825-12.375-2.475s-7.199-3.875-10.049-6.675c-2.851-2.798-5.101-6.098-6.75-9.9
			c-1.65-3.799-2.476-7.849-2.476-12.15c0-4.298,0.825-8.374,2.476-12.225c1.649-3.848,3.899-7.2,6.75-10.05
			c2.85-2.85,6.173-5.1,9.975-6.75c3.799-1.65,7.85-2.475,12.15-2.475c6.6,0,12.322,2.001,17.174,6
			c4.85,4.001,8.424,9.101,10.726,15.3c-3.401,1.301-7.177,2.775-11.325,4.425c-4.15,1.65-8.4,3.352-12.75,5.1
			c-4.35,1.75-8.676,3.501-12.975,5.25c-4.301,1.75-8.302,3.375-12,4.875c1.8,4.102,4.574,7.401,8.324,9.9
			c3.75,2.5,8.025,3.75,12.826,3.75c3.199,0,6.248-0.548,9.149-1.65c2.899-1.1,5.349-2.6,7.351-4.5L545.937,134.268z
			 M540.836,99.168c-1.701-3.398-4.102-6.075-7.199-8.025c-3.102-1.95-6.551-2.925-10.35-2.925c-3.202,0-6.202,0.626-9,1.875
			c-2.801,1.251-5.25,2.925-7.351,5.025s-3.75,4.526-4.95,7.275c-1.199,2.752-1.8,5.677-1.8,8.775c0,1.601,0.149,3,0.45,4.2
			c3.098-1.298,6.398-2.648,9.9-4.05c3.498-1.399,6.998-2.824,10.5-4.275c3.498-1.449,6.949-2.85,10.35-4.2
			C534.786,101.493,537.936,100.27,540.836,99.168z"/>
		<path fill="#FFFFFF" d="M599.336,87.168l-4.5,5.85c-0.803-1.099-2.377-2.123-4.726-3.075c-2.351-0.949-4.726-1.425-7.125-1.425
			c-1.001,0-2.077,0.15-3.226,0.45c-1.15,0.3-2.2,0.776-3.149,1.425c-0.952,0.652-1.751,1.5-2.399,2.55
			c-0.652,1.05-0.976,2.325-0.976,3.825c0,2.302,0.698,4.125,2.101,5.475c1.398,1.35,3.149,2.527,5.25,3.525
			c2.1,1.001,4.373,1.95,6.824,2.85c2.449,0.9,4.725,2.001,6.825,3.3c2.101,1.301,3.849,2.977,5.25,5.025
			c1.399,2.051,2.101,4.676,2.101,7.875c0,5.001-1.702,9.225-5.101,12.675c-3.401,3.45-8.25,5.175-14.55,5.175
			c-3.4,0-6.877-0.601-10.426-1.8c-3.551-1.2-6.426-3.099-8.625-5.7c0.398-0.398,0.9-0.949,1.5-1.65
			c0.601-0.698,1.148-1.35,1.65-1.95c0.5-0.6,0.924-1.125,1.275-1.575c0.35-0.45,0.574-0.675,0.675-0.675
			c0.3,0.501,0.949,1.05,1.95,1.65c0.998,0.6,2.148,1.177,3.449,1.725c1.299,0.551,2.701,1.026,4.201,1.425
			c1.5,0.401,2.947,0.6,4.35,0.6c1.199,0,2.475-0.173,3.824-0.525c1.351-0.349,2.6-0.923,3.75-1.725c1.148-0.799,2.074-1.8,2.775-3
			c0.699-1.2,1.051-2.648,1.051-4.35c0-2.299-0.701-4.125-2.101-5.475c-1.401-1.35-3.149-2.524-5.25-3.525
			c-2.101-0.999-4.401-1.924-6.899-2.775c-2.502-0.849-4.801-1.924-6.9-3.225c-2.1-1.298-3.852-3-5.25-5.1
			c-1.402-2.1-2.1-4.8-2.1-8.1c0-3,0.548-5.524,1.649-7.575c1.099-2.048,2.499-3.75,4.2-5.1c1.699-1.35,3.623-2.325,5.775-2.925
			c2.148-0.6,4.223-0.9,6.225-0.9c2.6,0,5.449,0.551,8.55,1.65C594.334,83.169,597.034,84.869,599.336,87.168z"/>
		<path fill="#FFFFFF" d="M625.133,55.218h8.25v26.85h17.851v7.5h-17.851v51.9h-8.25v-51.9h-12v-7.5h12V55.218z"/>
		<path fill="#FFFFFF" d="M64.881,94.368l-5.85-12.9h7.35c4.999,11.1,9.124,20.426,12.375,27.975
			c3.249,7.551,6.075,14.175,8.475,19.875c1.2-3.6,2.475-7.099,3.825-10.5c1.35-3.398,2.824-6.949,4.425-10.65
			c1.598-3.699,3.375-7.699,5.325-12c1.95-4.299,4.125-9.199,6.525-14.7h8.25l-28.35,63.6c-3.401-7.2-6.525-14.299-9.375-21.3
			c-2.85-6.998-5.977-14.1-9.375-21.3l-18,42.6c-4.702-10.699-9.326-21.3-13.875-31.8c-4.552-10.5-9.126-21.098-13.725-31.8h8.25
			c2.4,5.501,4.523,10.425,6.375,14.775c1.849,4.35,3.525,8.376,5.025,12.075c1.5,3.701,2.899,7.226,4.2,10.575
			c1.298,3.352,2.55,6.825,3.75,10.425c0.799-2.1,1.65-4.25,2.55-6.45c0.9-2.198,1.898-4.65,3-7.35
			c1.099-2.7,2.349-5.775,3.75-9.225C61.18,102.843,62.879,98.868,64.881,94.368z"/>
		<path fill="#FFFFFF" d="M175.582,134.268c-2.902,2.602-6.3,4.65-10.2,6.15s-7.95,2.25-12.15,2.25
			c-4.401,0-8.526-0.825-12.375-2.475c-3.851-1.65-7.2-3.875-10.05-6.675c-2.85-2.798-5.1-6.098-6.75-9.9
			c-1.65-3.799-2.475-7.849-2.475-12.15c0-4.298,0.825-8.374,2.475-12.225c1.65-3.848,3.9-7.2,6.75-10.05
			c2.85-2.85,6.173-5.1,9.975-6.75c3.799-1.65,7.85-2.475,12.15-2.475c6.6,0,12.323,2.001,17.175,6
			c4.849,4.001,8.423,9.101,10.725,15.3c-3.401,1.301-7.177,2.775-11.325,4.425c-4.151,1.65-8.4,3.352-12.75,5.1
			c-4.35,1.75-8.676,3.501-12.975,5.25c-4.301,1.75-8.301,3.375-12,4.875c1.8,4.102,4.575,7.401,8.325,9.9
			c3.75,2.5,8.025,3.75,12.825,3.75c3.199,0,6.248-0.548,9.15-1.65c2.899-1.1,5.348-2.6,7.35-4.5L175.582,134.268z M170.481,99.168
			c-1.702-3.398-4.102-6.075-7.2-8.025c-3.101-1.95-6.551-2.925-10.35-2.925c-3.202,0-6.202,0.626-9,1.875
			c-2.801,1.251-5.25,2.925-7.35,5.025s-3.75,4.526-4.95,7.275c-1.2,2.752-1.8,5.677-1.8,8.775c0,1.601,0.15,3,0.45,4.2
			c3.099-1.298,6.398-2.648,9.9-4.05c3.499-1.399,6.998-2.824,10.5-4.275c3.499-1.449,6.949-2.85,10.35-4.2
			C164.43,101.493,167.58,100.27,170.481,99.168z"/>
		<path fill="#FFFFFF" d="M209.03,110.418c-3.401-4.8-6.9-9.624-10.5-14.475c-3.6-4.849-7.151-9.675-10.65-14.475h10.2
			c2.798,4.2,5.498,8.025,8.1,11.475c2.6,3.45,5.349,7.226,8.25,11.325c2.799-4.099,5.499-7.875,8.1-11.325
			c2.599-3.45,5.299-7.224,8.1-11.325h9.3c-1.8,2.602-3.525,5.1-5.175,7.5s-3.326,4.751-5.025,7.05
			c-1.702,2.301-3.427,4.65-5.175,7.05c-1.75,2.4-3.525,4.95-5.325,7.65c3.499,4.8,7.249,9.9,11.25,15.3
			c3.999,5.4,7.699,10.5,11.1,15.3h-10.35c-3-4.099-5.977-8.025-8.925-11.775c-2.951-3.75-5.875-7.673-8.775-11.775
			c-2.901,4.102-5.7,8.001-8.4,11.7c-2.7,3.701-5.501,7.65-8.4,11.85h-9.3c3.5-5.198,7.1-10.374,10.8-15.525
			C201.929,120.793,205.529,115.619,209.03,110.418z"/>
	</g>
</g>
</svg>
